<?xml version="1.0" encoding="utf-8"?>
<!-- Generator: Adobe Illustrator 23.0.0, SVG Export Plug-In . SVG Version: 6.00 Build 0)  -->
<svg version="1.1" id="Layer_1" xmlns="http://www.w3.org/2000/svg" xmlns:xlink="http://www.w3.org/1999/xlink" x="0px" y="0px"
	 viewBox="0 0 30 30" style="enable-background:new 0 0 30 30;" xml:space="preserve">
<style type="text/css">
	.st0{fill:#2D374B;}
	.st1{fill:#96BEDC;}
	.st2{fill:#FFFFFF;}
	.st3{fill-rule:evenodd;clip-rule:evenodd;fill:#28A0F0;}
</style>
<rect class="st0" width="30" height="30"/>
<path class="st1" d="M13.9,3.7c0.6-0.4,1.5-0.4,2.1,0l8.4,4.7c0.6,0.4,1,1,1,1.8v9.5c0,0.7-0.4,1.4-1,1.8l-8.4,4.7
	c-0.6,0.4-1.5,0.4-2.1,0l-8.4-4.7c-0.6-0.4-1-1-1-1.8v-9.5c0-0.7,0.4-1.4,1-1.8L13.9,3.7z"/>
<path class="st0" d="M14.7,5c0.2-0.1,0.5-0.1,0.7,0l8.3,4.7C23.9,9.8,24,10,24,10.2v9.4c0,0.2-0.1,0.5-0.3,0.6l-8.3,4.7
	c-0.2,0.1-0.5,0.1-0.7,0l-8.3-4.7C6.2,20.1,6,19.9,6,19.6v-9.4C6,10,6.2,9.8,6.4,9.7L14.7,5z"/>
<path class="st2" d="M6.8,22.2l-1.5-0.8c-0.5-0.3-0.8-0.8-0.8-1.4l5.6-8.4c0.6-0.9,1.7-1.5,2.8-1.5h1.6L6.8,22.2z"/>
<path class="st2" d="M10.4,24.3l-2.7-1.5l7.9-12.6h3.4L10.4,24.3z"/>
<path class="st3" d="M21.3,21.6l-3,1.7l-3.3-5l2-3.3L21.3,21.6z M24,18.2v1.4c0,0.2-0.1,0.5-0.3,0.6l-1.5,0.9L17.7,14l1.7-2.8
	L24,18.2z"/>
</svg>
