<?xml version="1.0" encoding="utf-8"?>
<!-- Generator: Adobe Illustrator 23.0.0, SVG Export Plug-In . SVG Version: 6.00 Build 0)  -->
<svg version="1.1" id="Layer_1" xmlns="http://www.w3.org/2000/svg" xmlns:xlink="http://www.w3.org/1999/xlink" x="0px" y="0px"
	 viewBox="0 0 30 30" style="enable-background:new 0 0 30 30;" xml:space="preserve">
<style type="text/css">
	.st0{fill-rule:evenodd;clip-rule:evenodd;fill:#E84142;}
</style>
<path class="st0" d="M15,0C6.7,0,0,6.7,0,15s6.7,15,15,15s15-6.7,15-15S23.3,0,15,0z M13.7,19.2L13.7,19.2c-0.3,0.6-0.5,0.9-0.7,1.1
	c-0.3,0.2-0.6,0.4-0.9,0.5C11.8,21,11.4,21,10.7,21H7.8c-0.6,0-0.9,0-1.1-0.1c-0.2-0.1-0.3-0.3-0.3-0.6c0-0.2,0.1-0.5,0.4-1L14,6.6
	c0.3-0.5,0.5-0.8,0.7-0.9c0.2-0.1,0.5-0.1,0.7,0c0.2,0.1,0.4,0.4,0.7,0.9l1.5,2.6l0,0c0.3,0.6,0.5,0.9,0.6,1.2c0.1,0.3,0.1,0.7,0,1
	c-0.1,0.3-0.2,0.6-0.6,1.2L13.7,19.2L13.7,19.2z M23.4,20.8C23.2,21,22.9,21,22.3,21h-4.2c-0.6,0-0.9,0-1.1-0.1
	c-0.2-0.1-0.3-0.3-0.3-0.6c0-0.2,0.1-0.5,0.4-1l0,0l2.1-3.6c0.3-0.5,0.5-0.8,0.7-0.9c0.2-0.1,0.5-0.1,0.7,0c0.2,0.1,0.3,0.3,0.6,0.8
	l0,0l2.1,3.6c0,0,0,0,0,0.1c0.3,0.5,0.4,0.8,0.4,1C23.7,20.5,23.6,20.7,23.4,20.8L23.4,20.8z"/>
</svg>
