<?xml version="1.0" encoding="utf-8"?>
<!-- Generator: Adobe Illustrator 23.0.0, SVG Export Plug-In . SVG Version: 6.00 Build 0)  -->
<svg version="1.1" id="Layer_1" xmlns="http://www.w3.org/2000/svg" xmlns:xlink="http://www.w3.org/1999/xlink" x="0px" y="0px"
	 viewBox="0 0 28 28" style="enable-background:new 0 0 28 28;" xml:space="preserve">
<style type="text/css">
	.st0{fill-rule:evenodd;clip-rule:evenodd;fill:#FFFFFF;}
	.st1{fill-rule:evenodd;clip-rule:evenodd;fill:url(#Head_1_);}
	.st2{fill-rule:evenodd;clip-rule:evenodd;fill:url(#SVGID_1_);}
</style>
<rect class="st0" width="28" height="28"/>
<title>brave-browser</title>
<g id="starting-collection">
	<g id="Build-Icons" transform="translate(-70.000000, -350.000000)">
		<g transform="translate(50.000000, 350.000000)">
			<g id="Logo" transform="translate(20.114286, 0.000000)">
				
					<linearGradient id="Head_1_" gradientUnits="userSpaceOnUse" x1="-3827.7666" y1="1031.0371" x2="-3827.6799" y2="1031.0371" gradientTransform="matrix(217.6 0 0 255.4727 832926.5 -263387.8125)">
					<stop  offset="0" style="stop-color:#FF5500"/>
					<stop  offset="0.4099" style="stop-color:#FF5500"/>
					<stop  offset="0.582" style="stop-color:#FF2000"/>
					<stop  offset="1" style="stop-color:#FF2000"/>
				</linearGradient>
				<path id="Head" class="st1" d="M22.7,8.3l0.5-1.2c0,0-0.6-0.7-1.4-1.5s-2.5-0.3-2.5-0.3l-1.9-2.2H14h-3.5L8.6,5.2
					c0,0-1.7-0.5-2.5,0.3S4.6,7.1,4.6,7.1l0.6,1.3l-0.8,1.7c0,0,2,7.3,2.1,8.2c0.5,1.8,0.8,2.5,2.1,3.3c1.3,0.9,3.5,2.4,3.9,2.7
					c0.4,0.2,0.9,0.6,1.3,0.6c0.4,0,0.9-0.4,1.3-0.6c0.4-0.2,2.7-1.8,3.9-2.7c1.3-0.9,1.6-1.6,2.1-3.3c0.2-0.8,2.1-8.2,2.1-8.2
					L22.7,8.3z"/>
				<path id="Face" class="st0" d="M18.7,6.6c0,0,2.4,3,2.4,3.6s-0.3,0.8-0.6,1.2c-0.3,0.3-1.7,1.8-1.9,2c-0.2,0.2-0.6,0.5-0.3,0.9
					c0.2,0.5,0.6,1.2,0.2,1.8c-0.3,0.6-0.9,1.1-1.3,1c-0.4-0.1-1.3-0.6-1.7-0.8c-0.3-0.2-1.4-1-1.4-1.4c0-0.4,1.1-0.9,1.3-1.1
					c0.2-0.2,1.1-0.6,1.2-0.9c0-0.2,0-0.2-0.2-0.8c-0.2-0.6-0.8-1.2-0.7-1.7c0.1-0.5,0.9-0.7,1.4-0.9c0.6-0.2,1.7-0.6,1.8-0.7
					c0.2-0.1,0.1-0.2-0.3-0.2c-0.4-0.1-1.6-0.2-2.1-0.1C15.9,8.7,15.1,8.9,15,9c-0.1,0.1,0,0.3,0.1,0.7s0.5,2.4,0.5,2.8
					c0.1,0.3,0.1,0.6-0.2,0.6c-0.4,0.1-1,0.2-1.3,0.2c-0.2,0-0.9-0.2-1.3-0.2c-0.4-0.1-0.3-0.3-0.2-0.6c0.1-0.3,0.4-2.3,0.5-2.8
					s0-0.4-0.1-0.6c-0.1-0.2-0.9-0.3-1.5-0.5c-0.6-0.2-1.7,0-2.1,0.1C9.1,8.7,9,8.8,9.2,8.9c0.2,0,1.2,0.4,1.8,0.6s1.3,0.5,1.4,0.9
					c0.1,0.5-0.4,1.2-0.7,1.7c-0.2,0.6-0.3,0.6-0.2,0.8c0,0.2,0.9,0.7,1.2,0.9c0.2,0.2,1.3,0.7,1.3,1.1c0,0.3-1,1.2-1.4,1.4
					c-0.3,0.2-1.3,0.7-1.7,0.8c-0.4,0.1-1-0.4-1.3-1c-0.3-0.6,0-1.3,0.2-1.8c0.2-0.5-0.2-0.8-0.3-0.9c-0.1-0.1-1.6-1.7-1.9-2
					C7.4,10.9,7,10.8,7,10.1c0-0.7,2.1-3.5,2.1-3.5S11.2,7,11.5,7c0.3,0,0.9-0.2,1.4-0.4c0.6-0.2,0.9-0.2,0.9-0.2s0.4,0,0.9,0.2
					C15.3,6.8,16,7,16.2,7C16.5,7,18.7,6.6,18.7,6.6z M16.8,18.1c0.2,0.1,0.1,0.3-0.1,0.4c-0.2,0.1-2.1,1.6-2.2,1.7
					c-0.2,0.2-0.5,0.4-0.6,0.4c-0.2,0-0.5-0.2-0.6-0.4c-0.1-0.2-2.1-1.7-2.2-1.7c-0.2-0.1-0.2-0.3-0.1-0.4c0.2-0.1,0.6-0.3,1.3-0.7
					c0.6-0.3,1.5-0.6,1.7-0.6s0.9,0.3,1.7,0.6C16.2,17.8,16.7,18,16.8,18.1z"/>
				<g id="Top-Head">
					
						<linearGradient id="SVGID_1_" gradientUnits="userSpaceOnUse" x1="-3824.2349" y1="1103.8047" x2="-3824.1501" y2="1103.8047" gradientTransform="matrix(180.608 0 0 46.0337 690693.8125 -50807.2031)">
						<stop  offset="0" style="stop-color:#FF452A"/>
						<stop  offset="1" style="stop-color:#FF2000"/>
					</linearGradient>
					<path class="st2" d="M19.3,5.2L17.4,3H14h-3.5L8.6,5.2c0,0-1.7-0.5-2.5,0.3c0,0,2.3-0.2,3,1c0,0,2.1,0.4,2.4,0.4
						c0.2,0,0.9-0.2,1.4-0.4c0.6-0.2,0.9-0.2,0.9-0.2s0.4,0,0.9,0.2C15.3,6.7,16,7,16.2,7c0.2,0,2.4-0.4,2.4-0.4c0.8-1.3,3-1,3-1
						C20.9,4.7,19.3,5.2,19.3,5.2"/>
				</g>
			</g>
		</g>
	</g>
</g>
</svg>
