<?xml version="1.0" encoding="utf-8"?>
<!-- Generator: Adobe Illustrator 23.0.0, SVG Export Plug-In . SVG Version: 6.00 Build 0)  -->
<svg version="1.1" id="Layer_1" xmlns="http://www.w3.org/2000/svg" xmlns:xlink="http://www.w3.org/1999/xlink" x="0px" y="0px"
	 viewBox="0 0 30 30" style="enable-background:new 0 0 30 30;" xml:space="preserve">
<style type="text/css">
	.st0{fill:#F0B90B;}
	.st1{fill:#FFFFFF;}
</style>
<rect class="st0" width="30" height="30"/>
<path class="st1" d="M9.2,7.3L15,4l5.8,3.3l-2.1,1.2L15,6.5l-3.7,2.1L9.2,7.3z M20.8,11.7l-2.1-1.2L15,12.5l-3.7-2.1l-2.1,1.2v2.5
	l3.7,2.1v4.2l2.1,1.2l2.1-1.2v-4.2l3.7-2.1C20.8,14.1,20.8,11.7,20.8,11.7z M20.8,18.3v-2.5l-2.1,1.2v2.5L20.8,18.3z M22.3,19.2
	l-3.7,2.1v2.5l5.8-3.3v-6.8L22.3,15V19.2z M20.2,9.5l2.1,1.2v2.6l2.1-1.2V9.5l-2.1-1.2L20.2,9.5z M12.9,22.3v2.5L15,26l2.1-1.2v-2.5
	L15,23.5L12.9,22.3z M9.2,18.3l2.1,1.2v-2.5l-2.1-1.2V18.3z M12.9,9.5l2.1,1.2l2.1-1.2L15,8.2L12.9,9.5z M7.7,10.8l2.1-1.2L7.7,8.2
	L5.6,9.5v2.5l2.1,1.3V10.8z M7.7,15l-2.1-1.2v6.8l5.8,3.3v-2.5l-3.7-2.1V15z"/>
</svg>
