<?xml version="1.0" encoding="utf-8"?>
<!-- Generator: Adobe Illustrator 23.0.0, SVG Export Plug-In . SVG Version: 6.00 Build 0)  -->
<svg version="1.1" id="Layer_1" xmlns="http://www.w3.org/2000/svg" xmlns:xlink="http://www.w3.org/1999/xlink" x="0px" y="0px"
	 viewBox="0 0 30 30" style="enable-background:new 0 0 30 30;" xml:space="preserve">
<style type="text/css">
	.st0{fill:#35D07F;}
	.st1{fill:#FBCC5C;}
	.st2{fill:#ECFF8F;}
</style>
<g>
	<path class="st0" d="M17,18.7c3.2,0,5.8-2.7,5.8-6c0-3.3-2.6-6-5.8-6s-5.8,2.7-5.8,6C11.2,16,13.8,18.7,17,18.7z M17,20.9
		c-4.4,0-7.9-3.7-7.9-8.2c0-4.5,3.6-8.2,7.9-8.2S25,8.2,25,12.7C25,17.2,21.4,20.9,17,20.9z"/>
	<path class="st1" d="M12.7,23.3c3.1,0,5.6-2.7,5.6-6s-2.5-6-5.6-6s-5.6,2.7-5.6,6S9.6,23.3,12.7,23.3z M12.7,25.5
		c-4.2,0-7.7-3.7-7.7-8.2s3.4-8.2,7.7-8.2s7.7,3.7,7.7,8.2S16.9,25.5,12.7,25.5z"/>
	<path class="st2" d="M17,20.9c0.5-0.7,0.9-1.5,1.1-2.3c0.8-0.2,1.6-0.6,2.2-1.2c0,1-0.2,2-0.6,2.9C18.9,20.6,18,20.9,17,20.9
		L17,20.9z M11.3,11.4c-0.8,0.2-1.6,0.6-2.2,1.2c0-1,0.2-2,0.6-2.9c0.9-0.4,1.8-0.6,2.7-0.6C11.9,9.8,11.5,10.6,11.3,11.4L11.3,11.4
		z"/>
</g>
</svg>
