<?xml version="1.0" encoding="utf-8"?>
<!-- Generator: Adobe Illustrator 23.0.0, SVG Export Plug-In . SVG Version: 6.00 Build 0)  -->
<svg version="1.1" id="fantom" xmlns="http://www.w3.org/2000/svg" xmlns:xlink="http://www.w3.org/1999/xlink" x="0px" y="0px"
	 viewBox="0 0 30 30" style="enable-background:new 0 0 30 30;" xml:space="preserve">
<style type="text/css">
	.st0{fill:#0A15EE;}
	.st1{fill:#FFFFFF;}
</style>
<rect class="st0" width="30" height="30"/>
<path class="st1" d="M14.1,4.8c0.5-0.3,1.3-0.3,1.8,0l5.2,2.6c0.3,0.2,0.5,0.4,0.5,0.6h0v13c0,0.3-0.2,0.5-0.5,0.7l-5.2,2.6
	c-0.5,0.3-1.3,0.3-1.8,0l-5.2-2.6c-0.3-0.2-0.5-0.4-0.5-0.7c0,0,0,0,0-0.1V8c0,0,0,0,0,0l0,0h0c0-0.2,0.2-0.5,0.5-0.6L14.1,4.8z
	 M20.8,15.2l-4.9,2.4c-0.5,0.3-1.3,0.3-1.8,0l-4.9-2.4v5.7l4.9,2.4c0.3,0.1,0.6,0.3,0.8,0.3l0.1,0c0.3,0,0.6-0.1,0.9-0.3l5-2.5V15.2
	z M7.5,20.6c0,0.5,0.1,0.8,0.2,1.1c0.1,0.2,0.3,0.3,0.5,0.5l0,0c0.1,0,0.1,0.1,0.2,0.1l0.1,0.1l0.3,0.2l-0.4,0.7L8.1,23L8,23
	c-0.1-0.1-0.2-0.1-0.3-0.1c-0.8-0.5-1.1-1-1.1-2.2l0,0H7.5z M14.6,11.7c0,0-0.1,0-0.1,0l-5.2,2.6c0,0,0,0,0,0l0,0l0,0l0,0l5.2,2.6
	c0,0,0.1,0,0.1,0V11.7z M15.4,11.7V17c0,0,0.1,0,0.1,0l5.2-2.6c0,0,0,0,0,0l0,0l0,0l0,0l-5.2-2.6C15.5,11.8,15.4,11.7,15.4,11.7z
	 M20.8,8.9l-4.7,2.3l4.7,2.3V8.9z M9.2,8.9v4.6l4.7-2.3L9.2,8.9z M15.5,5.5c-0.3-0.1-0.8-0.1-1,0L9.2,8c0,0,0,0,0,0l0,0l0,0l0,0
	l5.2,2.6c0.3,0.1,0.8,0.1,1,0l5.2-2.6c0,0,0,0,0,0l0,0l0,0l0,0L15.5,5.5z M21.6,5.7l0.3,0.2L22,6c0.1,0.1,0.2,0.1,0.3,0.1
	c0.8,0.5,1.1,1,1.1,2.2l0,0h-0.8c0-0.5-0.1-0.8-0.2-1.1c-0.1-0.2-0.3-0.3-0.5-0.5l0,0c-0.1,0-0.1-0.1-0.2-0.1l-0.1-0.1l-0.3-0.2
	L21.6,5.7z"/>
</svg>
