<?xml version="1.0" encoding="utf-8"?>
<!-- Generator: Adobe Illustrator 23.0.0, SVG Export Plug-In . SVG Version: 6.00 Build 0)  -->
<svg version="1.1" id="Capa_1" xmlns="http://www.w3.org/2000/svg" xmlns:xlink="http://www.w3.org/1999/xlink" x="0px" y="0px"
	 viewBox="0 0 12 12" style="enable-background:new 0 0 12 12;" xml:space="preserve">
<style type="text/css">
	.st0{display:none;}
	.st1{display:inline;fill:#4D4D4D;}
	.st2{fill:#4D4D4D;}
</style>
<g class="st0">
	<path class="st1" d="M12,1.9l-5.5,8.4c0,0.1-0.1,0.1-0.2,0.1l0,0c-0.1,0-0.1,0-0.2-0.1L0,1.9c0-0.1,0-0.1,0-0.2s0.1-0.1,0.2-0.1
		h11.6c0.1,0,0.1,0,0.2,0.1C12,1.8,12,1.8,12,1.9z"/>
</g>
<g>
	<path class="st2" d="M2.2,2.9c-0.3,0-0.4,0.3-0.3,0.5l3.8,5.4C5.8,9,6.1,9,6.2,8.8l3.9-5.4c0.2-0.2,0-0.5-0.3-0.5L2.2,2.9z"/>
</g>
</svg>
