<?xml version="1.0" encoding="utf-8"?>
<!-- Generator: Adobe Illustrator 23.0.0, SVG Export Plug-In . SVG Version: 6.00 Build 0)  -->
<svg version="1.1" id="Layer_1" xmlns="http://www.w3.org/2000/svg" xmlns:xlink="http://www.w3.org/1999/xlink" x="0px" y="0px"
	 viewBox="0 0 28 28" style="enable-background:new 0 0 28 28;" xml:space="preserve">
<style type="text/css">
	.st0{fill:#FFFFFF;}
	.st1{fill:#E2761B;}
	.st2{fill:#E4761B;}
	.st3{fill:#D7C1B3;}
	.st4{fill:#233447;}
	.st5{fill:#CD6116;}
	.st6{fill:#E4751F;}
	.st7{fill:#F6851B;}
	.st8{fill:#C0AD9E;}
	.st9{fill:#161616;}
	.st10{fill:#763D16;}
</style>
<rect class="st0" width="28" height="28"/>
<g>
	<path class="st1" d="M24.7,2.5l-9.2,6.9l1.7-4L24.7,2.5z"/>
	<path class="st2" d="M3.3,2.5l9,6.7l-1.5-3.8L3.3,2.5z"/>
	<path class="st2" d="M21.3,18.6l-2.4,3.7l5.3,1.5l1.5-5.2H21.3z"/>
	<path class="st2" d="M2.4,18.6l1.5,5.2l5.3-1.6l-2.4-3.6H2.4z"/>
	<path class="st2" d="M8.8,12.1l-1.5,2.2l5.2,0.2l-0.2-5.4L8.8,12.1z"/>
	<path class="st2" d="M19.2,12l-3.6-3.3l-0.1,5.7l5.2-0.2L19.2,12z"/>
	<path class="st2" d="M9.1,22.2l3.2-1.5l-2.8-2.2L9.1,22.2z"/>
	<path class="st2" d="M15.7,20.7l3.2,1.6l-0.4-3.7L15.7,20.7z"/>
	<path class="st3" d="M18.9,22.3l-3.2-1.6l0.3,2l-0.1,1L18.9,22.3z"/>
	<path class="st3" d="M9.1,22.2l3,1.4v-0.8l0.2-2L9.1,22.2z"/>
	<path class="st4" d="M12.1,17.2l-2.6-0.7l1.8-0.8L12.1,17.2z"/>
	<path class="st4" d="M16,17.1l0.7-1.6l1.9,0.8L16,17.1z"/>
	<path class="st5" d="M9.1,22.2l0.4-3.7l-2.9,0.1L9.1,22.2z"/>
	<path class="st5" d="M18.4,18.6l0.4,3.7l2.4-3.7H18.4z"/>
	<path class="st5" d="M20.7,14.2l-5.2,0.2l0.5,2.6l0.7-1.6l1.9,0.8L20.7,14.2z"/>
	<path class="st5" d="M9.5,16.5l1.8-0.8l0.8,1.6l0.4-2.6l-5.2-0.2L9.5,16.5z"/>
	<path class="st6" d="M7.3,14.3l2.2,4.1l-0.1-2L7.3,14.3z"/>
	<path class="st6" d="M18.7,16.4l-0.2,2.2l2.2-4.3L18.7,16.4z"/>
	<path class="st6" d="M12.5,14.6l-0.4,2.6l0.6,3.2l0.1-4.1L12.5,14.6z"/>
	<path class="st6" d="M15.5,14.5l-0.3,1.7l0.1,4.2l0.7-3.3L15.5,14.5z"/>
	<path class="st7" d="M16,17.1l-0.7,3.3l0.4,0.3l2.7-2.1l0.2-2.2L16,17.1z"/>
	<path class="st7" d="M9.5,16.5l0.1,2l2.7,2.2l0.4-0.3l-0.6-3.2L9.5,16.5z"/>
	<path class="st8" d="M15.9,23.7l0.1-1l-0.2-0.2h-3.5l-0.2,0.2v0.8l-3-1.4l1.1,0.8l2.1,1.5h3.6L18,23l0.8-0.7L15.9,23.7z"/>
	<path class="st9" d="M15.7,20.7l-0.4-0.3h-2.5l-0.4,0.3l-0.2,2l0.2-0.2h3.5l0.2,0.2L15.7,20.7z"/>
	<path class="st10" d="M25.1,9.8L25.8,6l-1.2-3.5l-9,6.7l3.5,3l4.9,1.4l1.1-1.3l-0.4-0.3l0.7-0.6l-0.5-0.4l0.7-0.5L25.1,9.8z"/>
	<path class="st10" d="M2.2,6.1l0.7,3.7l-0.5,0.4l0.7,0.5l-0.5,0.4l0.7,0.7l-0.4,0.3L4,13.5l4.9-1.4l3.5-3l-9-6.7L2.2,6.1z"/>
	<path class="st7" d="M24,13.5l-4.9-1.4l1.5,2.1l-2.2,4.3h2.9h4.3L24,13.5z"/>
	<path class="st7" d="M8.8,12.1L4,13.5l-1.6,5.1h4.3l2.9-0.1l-2.2-4.1L8.8,12.1z"/>
	<path class="st7" d="M15.5,14.5l0.2-5.3l1.5-3.8h-6.3l1.5,3.8l0.2,5.4l0.3,1.7l-0.1,4.1h2.5l-0.1-4.2L15.5,14.5z"/>
</g>
</svg>
