<?xml version="1.0" encoding="utf-8"?>
<!-- Generator: Adobe Illustrator 23.0.0, SVG Export Plug-In . SVG Version: 6.00 Build 0)  -->
<svg version="1.1" id="optimism" xmlns="http://www.w3.org/2000/svg" xmlns:xlink="http://www.w3.org/1999/xlink" x="0px" y="0px"
	 viewBox="0 0 30 30" style="enable-background:new 0 0 30 30;" xml:space="preserve">
<style type="text/css">
	.st0{fill:#FF0420;}
	.st1{fill-rule:evenodd;clip-rule:evenodd;fill:#FFFFFF;}
</style>
<path class="st0" d="M15,30c8.3,0,15-6.7,15-15c0-8.3-6.7-15-15-15C6.7,0,0,6.7,0,15C0,23.3,6.7,30,15,30z"/>
<path class="st1" d="M8.4,18.4C9,18.8,9.7,19,10.6,19c1.1,0,1.9-0.3,2.6-0.8c0.6-0.5,1.1-1.3,1.4-2.3c0.2-0.6,0.3-1.3,0.4-1.9
	c0-0.2,0.1-0.4,0.1-0.6c0-0.5-0.1-1-0.4-1.4c-0.3-0.4-0.6-0.7-1.1-0.9c-0.5-0.2-1-0.3-1.6-0.3c-2.1,0-3.4,1-4,3.1
	c-0.2,0.8-0.3,1.4-0.4,1.9c0,0.2-0.1,0.4-0.1,0.6C7.6,17.3,7.9,17.9,8.4,18.4z M11.9,17c-0.3,0.2-0.6,0.4-1.1,0.4
	c-0.7,0-1.1-0.3-1.1-1c0-0.2,0-0.3,0-0.5c0.1-0.7,0.3-1.3,0.4-1.8c0.1-0.5,0.3-0.9,0.6-1.1c0.3-0.2,0.7-0.4,1.1-0.4
	c0.7,0,1.1,0.3,1.1,1c0,0.2,0,0.3,0,0.5c-0.1,0.5-0.2,1.1-0.4,1.8C12.4,16.4,12.2,16.7,11.9,17z M15.4,18.8c0,0.1,0.1,0.1,0.2,0.1
	h1.5c0.1,0,0.1,0,0.2-0.1c0.1-0.1,0.1-0.1,0.1-0.2l0.5-2.5h1.5c1,0,1.8-0.2,2.3-0.6c0.6-0.4,0.9-1.1,1.1-1.9c0-0.2,0.1-0.4,0.1-0.6
	c0-0.7-0.3-1.2-0.8-1.5c-0.5-0.3-1.2-0.5-2-0.5h-3c-0.1,0-0.1,0-0.2,0.1c-0.1,0.1-0.1,0.1-0.1,0.2l-1.6,7.3
	C15.3,18.7,15.3,18.7,15.4,18.8z M20.4,14.3c-0.2,0.2-0.5,0.3-0.8,0.3h-1.3l0.4-2H20c0.3,0,0.5,0.1,0.7,0.2c0.1,0.1,0.2,0.3,0.2,0.5
	c0,0.1,0,0.2,0,0.3C20.8,13.9,20.6,14.1,20.4,14.3z"/>
</svg>
