<?xml version="1.0" encoding="utf-8"?>
<!-- Generator: Adobe Illustrator 23.0.0, SVG Export Plug-In . SVG Version: 6.00 Build 0)  -->
<svg version="1.1" id="Layer_1" xmlns="http://www.w3.org/2000/svg" xmlns:xlink="http://www.w3.org/1999/xlink" x="0px" y="0px"
	 viewBox="0 0 30 30" style="enable-background:new 0 0 30 30;" xml:space="preserve">
<style type="text/css">
	.st0{fill:#8247E5;}
	.st1{fill-rule:evenodd;clip-rule:evenodd;fill:#FFFFFF;}
</style>
<rect class="st0" width="30" height="30"/>
<path class="st1" d="M8.5,4.1c0.4-0.2,0.8-0.2,1.2,0l5.9,3.3C16,7.6,16.2,8,16.2,8.4v2.2L13.6,12V9.2L9.1,6.7L4.5,9.2v5l4.6,2.5
	l11.1-6.2c0.4-0.2,0.8-0.2,1.2,0l5.9,3.3c0.4,0.3,0.7,0.7,0.7,1.1v6.5c0,0.5-0.3,0.9-0.7,1.1l-5.9,3.3c-0.4,0.2-0.8,0.2-1.2,0
	l-5.9-3.3c-0.4-0.3-0.7-0.7-0.7-1.1v-2.2l2.6-1.4v2.8l4.6,2.5l4.6-2.5v-5l-4.6-2.5L9.8,19.4c-0.4,0.2-0.8,0.2-1.2,0l-5.9-3.3
	C2.3,15.8,2,15.4,2,15V8.4C2,8,2.3,7.5,2.7,7.3L8.5,4.1z"/>
</svg>
