<?xml version="1.0" encoding="utf-8"?>
<!-- Generator: Adobe Illustrator 23.0.0, SVG Export Plug-In . SVG Version: 6.00 Build 0)  -->
<svg version="1.1" id="Layer_1" xmlns="http://www.w3.org/2000/svg" xmlns:xlink="http://www.w3.org/1999/xlink" x="0px" y="0px"
	 viewBox="0 0 40 40" style="enable-background:new 0 0 40 40;" xml:space="preserve">
<style type="text/css">
	.st0{fill:#343434;}
</style>
<g>
	<path class="st0" d="M30.8,1h-3.5v13.5c0,0.5-0.4,1-1,1H7.9c-0.5,0-1-0.4-1-1V1h-2C2.7,1,1,2.7,1,4.9v30.3C1,37.3,2.7,39,4.9,39h2
		V25.2c0-0.5,0.4-1,1-1h24.4c0.5,0,1,0.4,1,1V39h1.9c2.1,0,3.9-1.7,3.9-3.9V9.3L30.8,1z"/>
	<rect x="20.9" y="4.2" class="st0" width="4.1" height="9"/>
	<path class="st0" d="M9.9,35.5L9.9,35.5c0,0.6,0.5,1.1,1.1,1.1h17.5c0.6,0,1.1-0.5,1.1-1.1l0,0l0,0c0-0.6-0.5-1.1-1.1-1.1H11
		C10.4,34.4,9.9,34.9,9.9,35.5L9.9,35.5z"/>
	<path class="st0" d="M9.9,28.7L9.9,28.7c0,0.6,0.5,1.1,1.1,1.1h17.5c0.6,0,1.1-0.5,1.1-1.1l0,0l0,0c0-0.6-0.5-1.1-1.1-1.1H11
		C10.4,27.6,9.9,28.1,9.9,28.7L9.9,28.7z"/>
</g>
</svg>
