<?xml version="1.0" encoding="utf-8"?>
<!-- Generator: Adobe Illustrator 23.0.0, SVG Export Plug-In . SVG Version: 6.00 Build 0)  -->
<svg version="1.1" id="Layer_1" xmlns="http://www.w3.org/2000/svg" xmlns:xlink="http://www.w3.org/1999/xlink" x="0px" y="0px"
	 viewBox="0 0 30 30" style="enable-background:new 0 0 30 30;" xml:space="preserve">
<style type="text/css">
	.st0{fill:none;stroke:#0A0B0B;stroke-width:0.25;stroke-linecap:round;stroke-miterlimit:10;}
</style>
<g>
	<polygon class="st0" points="20,11.9 15,3.9 10,11.9 12.5,11.9 12.5,17.1 17.5,17.1 17.5,11.9 	"/>
	<g>
		<path class="st0" d="M20,28.5h6.6c1.1,0,1.9-0.9,1.9-1.9V20"/>
		<path class="st0" d="M1.5,20v6.6c0,1.1,0.9,1.9,1.9,1.9H10"/>
		<path class="st0" d="M10,1.5H3.4c-1.1,0-1.9,0.9-1.9,1.9V10"/>
		<path class="st0" d="M28.5,10V3.4c0-1.1-0.9-1.9-1.9-1.9H20"/>
	</g>
</g>
<g>
	<path d="M9.7,23.1c0,0.2,0,0.3,0,0.4s-0.1,0.1-0.1,0.2c-0.1,0.1-0.3,0.1-0.5,0.1c-0.1,0-0.2,0-0.3-0.1c-0.1,0-0.2-0.1-0.2-0.2
		s-0.1-0.2-0.1-0.4V22H8.2v1.1c0,0.2,0,0.3,0,0.3c0,0.1,0,0.1,0.1,0.2l0.1,0.1c0.2,0.1,0.4,0.2,0.6,0.2c0.2,0,0.5-0.1,0.6-0.2
		l0.1-0.1c0,0,0.1-0.1,0.1-0.2s0-0.2,0-0.3V22H9.7V23.1z"/>
	<path d="M11.4,22h-0.6v1.9H11V23h0.3c0.2,0,0.3,0,0.4-0.1c0.1,0,0.2-0.1,0.2-0.2c0.1-0.1,0.1-0.2,0.1-0.3c0-0.2-0.1-0.3-0.2-0.4
		C11.8,22.1,11.6,22,11.4,22z M11.7,22.8c-0.1,0.1-0.2,0.1-0.3,0.1H11v-0.7h0.4c0.4,0,0.4,0.2,0.4,0.4
		C11.8,22.7,11.8,22.8,11.7,22.8z"/>
	<polygon points="13,22 12.8,22 12.8,24 14,24 14,23.8 13,23.8 	"/>
	<path d="M15.7,22c-0.3,0-0.6,0.1-0.7,0.3c-0.2,0.2-0.3,0.4-0.3,0.7c0,0.3,0.1,0.5,0.3,0.7s0.4,0.3,0.7,0.3s0.6-0.1,0.8-0.3
		c0.2-0.2,0.3-0.4,0.3-0.7s-0.1-0.5-0.3-0.7C16.3,22.1,16,22,15.7,22z M16.3,23.6c-0.2,0.2-0.4,0.2-0.6,0.2c-0.2,0-0.4-0.1-0.6-0.2
		c-0.2-0.2-0.2-0.4-0.2-0.6s0.1-0.4,0.2-0.6c0.2-0.2,0.4-0.2,0.6-0.2c0.2,0,0.4,0.1,0.6,0.2c0.2,0.2,0.2,0.4,0.2,0.6
		C16.6,23.2,16.5,23.4,16.3,23.6z"/>
	<path d="M18.2,22l-0.8,2h0.2l0.3-0.6h0.9l0,0l0.3,0.6h0.2l-0.9-2H18.2z M17.9,23.2l0.4-0.9l0.4,0.9H17.9z"/>
	<path d="M21.7,22.5c-0.1-0.2-0.2-0.3-0.4-0.3c-0.2-0.1-0.4-0.1-0.6-0.1H20V24h0.6c0.2,0,0.3,0,0.4,0s0.1,0,0.2-0.1
		c0.1,0,0.2-0.1,0.3-0.2c0.1-0.1,0.2-0.2,0.2-0.3c0-0.1,0.1-0.2,0.1-0.4C21.8,22.8,21.8,22.7,21.7,22.5z M21.4,23.6
		c-0.1,0.1-0.1,0.1-0.2,0.1s-0.1,0.1-0.2,0.1s-0.2,0-0.4,0h-0.4v-1.6h0.4c0.1,0,0.2,0,0.3,0c0.1,0,0.1,0,0.2,0.1
		c0.1,0,0.1,0.1,0.2,0.1c0.2,0.1,0.2,0.3,0.2,0.6C21.6,23.2,21.5,23.4,21.4,23.6z"/>
</g>
</svg>
