<?xml version="1.0" encoding="utf-8"?>
<!-- Generator: Adobe Illustrator 23.0.0, SVG Export Plug-In . SVG Version: 6.00 Build 0)  -->
<svg version="1.1" id="Layer_1" xmlns="http://www.w3.org/2000/svg" xmlns:xlink="http://www.w3.org/1999/xlink" x="0px" y="0px"
	 viewBox="0 0 30 30" style="enable-background:new 0 0 30 30;" xml:space="preserve">
<style type="text/css">
	.st0{fill:#6B6B6B;}
	.st1{fill:#5E5E5E;}
	.st2{fill:none;stroke:#0A0B0B;stroke-width:0.25;stroke-linecap:round;stroke-miterlimit:10;}
	.st3{fill:#0A0B0B;}
</style>
<g>
	<polygon class="st0" points="-9.7,-32.4 -16.3,-36.4 -9.7,-26.9 -3.1,-36.4 	"/>
	<polygon class="st0" points="-3.1,-37.7 -9.7,-48.9 -16.3,-37.7 -9.7,-33.7 	"/>
</g>
<g>
	<polygon class="st1" points="-9.7,-48.9 -9.7,-33.7 -3.1,-37.7 	"/>
	<polygon class="st1" points="-9.7,-32.4 -3.1,-36.4 -9.7,-26.9 	"/>
</g>
<polygon class="st2" points="20,11.9 15,3.9 10,11.9 12.5,11.9 12.5,17.1 17.5,17.1 17.5,11.9 "/>
<g>
	<path class="st2" d="M20,28.5h6.6c1.1,0,1.9-0.9,1.9-1.9V20"/>
	<path class="st2" d="M1.5,20v6.6c0,1.1,0.9,1.9,1.9,1.9H10"/>
	<path class="st2" d="M10,1.5H3.4c-1.1,0-1.9,0.9-1.9,1.9V10"/>
	<path class="st2" d="M28.5,10V3.4c0-1.1-0.9-1.9-1.9-1.9H20"/>
</g>
<g>
	<path class="st3" d="M8.9,23.5c0,0.3-0.1,0.6-0.4,0.8S8,24.7,7.7,24.7H7.5c-0.3,0-0.6-0.1-0.8-0.4s-0.4-0.5-0.4-0.8v-4.1h0.8v3.9
		c0,0.4,0.2,0.7,0.5,0.7c0.3,0,0.5-0.2,0.5-0.7v-3.9h0.8V23.5z"/>
	<path class="st3" d="M12,21.9c0,0.3-0.1,0.6-0.3,0.8c-0.2,0.2-0.4,0.3-0.8,0.3h-0.7v1.6H9.4v-5.3c0.9,0,1.4,0,1.4,0
		c0.3,0,0.6,0.1,0.8,0.4c0.2,0.2,0.4,0.5,0.4,0.8V21.9z M11.2,21.7v-1c0-0.3,0-0.4-0.1-0.5C11,20.1,10.8,20,10.6,20h-0.4v2.3
		c0.3,0,0.5,0,0.5,0c0.2,0,0.3-0.1,0.4-0.2C11.2,22,11.2,21.9,11.2,21.7z"/>
	<path class="st3" d="M14.8,23.9v0.7h-2.4v-5.2h0.8v4.4H14.8z"/>
	<path class="st3" d="M17.6,23.5c0,0.3-0.1,0.6-0.4,0.8c-0.2,0.2-0.5,0.4-0.8,0.4h-0.2c-0.3,0-0.6-0.1-0.8-0.4
		c-0.2-0.2-0.4-0.5-0.4-0.8v-3c0-0.3,0.1-0.6,0.4-0.8c0.2-0.2,0.5-0.4,0.8-0.4h0.2c0.3,0,0.6,0.1,0.8,0.4c0.2,0.2,0.4,0.5,0.4,0.8
		V23.5z M16.8,23.3v-2.6c0-0.2,0-0.4-0.1-0.5c-0.1-0.1-0.2-0.2-0.4-0.2c-0.4,0-0.6,0.2-0.6,0.7v2.6c0,0.4,0.2,0.7,0.5,0.7
		C16.7,23.9,16.8,23.7,16.8,23.3z"/>
	<path class="st3" d="M20.7,24.6h-0.8l-0.2-1.2H19l-0.2,1.2H18l0.9-5.2l0.9,0L20.7,24.6z M19.5,22.6l-0.2-1.3l-0.2,1.3H19.5z"/>
	<path class="st3" d="M23.7,23.5c0,0.3-0.1,0.6-0.3,0.8c-0.2,0.2-0.4,0.3-0.8,0.3h-1.6v-5.2c0.9,0,1.4,0,1.4,0
		c0.3,0,0.6,0.1,0.8,0.4c0.2,0.2,0.4,0.5,0.4,0.8V23.5z M22.9,23.3v-2.5c0-0.3,0-0.4-0.1-0.5c-0.1-0.1-0.3-0.2-0.5-0.2
		c0,0-0.1,0-0.2,0s-0.2,0-0.2,0v3.8c0.3,0,0.5,0,0.5,0c0.2,0,0.3-0.1,0.4-0.2C22.9,23.6,22.9,23.5,22.9,23.3z"/>
</g>
</svg>
