<?xml version="1.0" encoding="utf-8"?>
<!-- Generator: Adobe Illustrator 23.0.0, SVG Export Plug-In . SVG Version: 6.00 Build 0)  -->
<svg version="1.1" id="Layer_1" xmlns="http://www.w3.org/2000/svg" xmlns:xlink="http://www.w3.org/1999/xlink" x="0px" y="0px"
	 viewBox="0 0 30 30" style="enable-background:new 0 0 30 30;" xml:space="preserve">
<style type="text/css">
	.st0{display:none;}
	
		.st1{display:inline;fill:none;stroke:#FFFFFF;stroke-width:0.75;stroke-linecap:round;stroke-linejoin:round;stroke-miterlimit:10;}
	.st2{display:none;fill:none;stroke:#FFFFFF;stroke-width:0.75;stroke-linecap:round;stroke-linejoin:round;stroke-miterlimit:10;}
	.st3{display:inline;}
	.st4{fill:#FFFFFF;}
	.st5{display:inline;fill:#B2B2B2;}
	.st6{display:inline;fill:#FFFFFF;}
	.st7{display:none;fill:#FFFFFF;}
	.st8{fill:#CECECC;}
</style>
<g class="st0">
	<path class="st1" d="M20,28.5h6.6c1.1,0,1.9-0.9,1.9-1.9V20"/>
	<path class="st1" d="M1.5,20v6.6c0,1.1,0.9,1.9,1.9,1.9H10"/>
	<path class="st1" d="M10,1.5H3.4c-1.1,0-1.9,0.9-1.9,1.9V10"/>
	<path class="st1" d="M28.5,10V3.4c0-1.1-0.9-1.9-1.9-1.9H20"/>
</g>
<polygon class="st2" points="20.7,16.6 15,7.5 9.3,16.6 12.2,16.6 12.2,22.5 17.8,22.5 17.8,16.6 "/>
<g class="st0">
	<path class="st3" d="M9.7,23.1c0,0.2,0,0.3,0,0.4s-0.1,0.1-0.1,0.2c-0.1,0.1-0.3,0.1-0.5,0.1c-0.1,0-0.2,0-0.3-0.1
		c-0.1,0-0.2-0.1-0.2-0.2s-0.1-0.2-0.1-0.4V22H8.2v1.1c0,0.2,0,0.3,0,0.3c0,0.1,0,0.1,0.1,0.2l0.1,0.1c0.2,0.1,0.4,0.2,0.6,0.2
		c0.2,0,0.5-0.1,0.6-0.2l0.1-0.1c0,0,0.1-0.1,0.1-0.2s0-0.2,0-0.3V22H9.7V23.1z"/>
	<path class="st3" d="M11.4,22h-0.6v1.9H11V23h0.3c0.2,0,0.3,0,0.4-0.1c0.1,0,0.2-0.1,0.2-0.2c0.1-0.1,0.1-0.2,0.1-0.3
		c0-0.2-0.1-0.3-0.2-0.4C11.8,22.1,11.6,22,11.4,22z M11.7,22.8c-0.1,0.1-0.2,0.1-0.3,0.1H11v-0.7h0.4c0.4,0,0.4,0.2,0.4,0.4
		C11.8,22.7,11.8,22.8,11.7,22.8z"/>
	<polygon class="st3" points="13,22 12.8,22 12.8,24 14,24 14,23.8 13,23.8 	"/>
	<path class="st3" d="M15.7,22c-0.3,0-0.6,0.1-0.7,0.3c-0.2,0.2-0.3,0.4-0.3,0.7c0,0.3,0.1,0.5,0.3,0.7s0.4,0.3,0.7,0.3
		s0.6-0.1,0.8-0.3c0.2-0.2,0.3-0.4,0.3-0.7s-0.1-0.5-0.3-0.7C16.3,22.1,16,22,15.7,22z M16.3,23.6c-0.2,0.2-0.4,0.2-0.6,0.2
		c-0.2,0-0.4-0.1-0.6-0.2c-0.2-0.2-0.2-0.4-0.2-0.6s0.1-0.4,0.2-0.6c0.2-0.2,0.4-0.2,0.6-0.2c0.2,0,0.4,0.1,0.6,0.2
		c0.2,0.2,0.2,0.4,0.2,0.6C16.6,23.2,16.5,23.4,16.3,23.6z"/>
	<path class="st3" d="M18.2,22l-0.8,2h0.2l0.3-0.6h0.9l0,0l0.3,0.6h0.2l-0.9-2H18.2z M17.9,23.2l0.4-0.9l0.4,0.9H17.9z"/>
	<path class="st3" d="M21.7,22.5c-0.1-0.2-0.2-0.3-0.4-0.3c-0.2-0.1-0.4-0.1-0.6-0.1H20V24h0.6c0.2,0,0.3,0,0.4,0s0.1,0,0.2-0.1
		c0.1,0,0.2-0.1,0.3-0.2c0.1-0.1,0.2-0.2,0.2-0.3c0-0.1,0.1-0.2,0.1-0.4C21.8,22.8,21.8,22.7,21.7,22.5z M21.4,23.6
		c-0.1,0.1-0.1,0.1-0.2,0.1s-0.1,0.1-0.2,0.1s-0.2,0-0.4,0h-0.4v-1.6h0.4c0.1,0,0.2,0,0.3,0c0.1,0,0.1,0,0.2,0.1
		c0.1,0,0.1,0.1,0.2,0.1c0.2,0.1,0.2,0.3,0.2,0.6C21.6,23.2,21.5,23.4,21.4,23.6z"/>
</g>
<g class="st0">
	<g class="st3">
		<g>
			<path class="st4" d="M22.5,24.9h-15V5.1h15V24.9z M8,24.4h14V5.6H8V24.4z"/>
		</g>
		<rect x="8.7" y="6.7" class="st4" width="12.6" height="12.6"/>
	</g>
</g>
<g class="st0">
	<path class="st5" d="M5.5,18.9l4.4-6.4l5.8,3.8l1.8-2l0.8,0.4l1.4-7.6c0.2-0.8,0.9-1.4,1.7-1.4c0.1,0,0.2,0,0.3,0l4.9,0.9V3.5h-23
		v17h10.2c0.4-0.1,0.9-0.2,1.3-0.2c0.3,0,0.6,0,0.9,0.1c0.2,0,0.3,0.1,0.5,0.1h0.7l0.3-1.6H5.5z M8.8,6.1c1.3,0,2.3,1,2.3,2.3
		c0,1.3-1,2.3-2.3,2.3c-1.3,0-2.3-1-2.3-2.3C6.5,7.2,7.5,6.1,8.8,6.1z"/>
	<polygon class="st5" points="21.4,16.5 25.6,18.9 20.9,18.9 20.6,20.5 26.5,20.5 26.5,15.4 21.7,14.5 	"/>
	<path class="st6" d="M10.5,24.1c0.2-0.9,0.6-1.6,1.1-2.3h-9V2.3h24.9v4.6L28.2,7c0.1,0,0.2,0.1,0.3,0.1V1.5h-27v27h10.6
		C10.9,27.5,10.2,25.8,10.5,24.1z"/>
	<path class="st6" d="M27.5,15.4v6.5h-7.2l-0.7,4c-0.2,1.1-0.8,2-1.6,2.7h10.5V14.4C28.3,14.8,28,15.2,27.5,15.4z"/>
	<path class="st6" d="M3.5,20.5v-17h23v3.2l1,0.2V2.3H2.6v19.5h9c0.6-0.6,1.3-1.1,2.1-1.3H3.5z"/>
	<path class="st6" d="M17.1,20.8l0-0.3h-0.7C16.6,20.6,16.9,20.7,17.1,20.8z"/>
	<path class="st6" d="M26.6,15.4l-0.1,0v5.1h-5.9l-0.2,1.3h7.2v-6.5c-0.2,0.1-0.4,0.1-0.6,0.1C26.8,15.5,26.7,15.5,26.6,15.4z"/>
	<path class="st6" d="M8.8,10.8c1.3,0,2.3-1,2.3-2.3c0-1.3-1-2.3-2.3-2.3c-1.3,0-2.3,1-2.3,2.3C6.5,9.7,7.5,10.8,8.8,10.8z"/>
	<polygon class="st6" points="25.6,18.9 21.4,16.5 20.9,18.9 	"/>
	<polygon class="st6" points="17.4,14.3 15.7,16.3 9.9,12.5 5.5,18.9 17.4,18.9 18.2,14.8 	"/>
	<path class="st5" d="M21.4,6.9c0,0-0.1,0-0.1,0c-0.3,0-0.6,0.2-0.6,0.5l-1.5,7.9l1.2,0.6l0.5-2.7l5.6,1.1V7.8L21.4,6.9z"/>
	<polygon class="st5" points="18.5,18.9 18.2,20.5 19.5,20.5 19.8,18.9 	"/>
	<path class="st5" d="M27.5,13.9l0.9-5c0.1-0.3-0.2-0.7-0.5-0.7L27.5,8L27.5,13.9C27.5,13.9,27.5,13.9,27.5,13.9z"/>
	<path class="st5" d="M17.8,22.7c-0.3-0.4-0.6-0.7-1.1-0.9h-3.4c-0.9,0.5-1.6,1.4-1.8,2.5c-0.4,1.9,0.9,3.8,2.8,4.2
		c0.2,0,0.4,0.1,0.7,0.1c1.7,0,3.2-1.2,3.5-2.9l0.7-3.8H18L17.8,22.7z"/>
	<polygon class="st5" points="18,21.8 19.3,21.8 19.5,20.5 18.2,20.5 	"/>
	<path class="st5" d="M26.5,14.3l0.3,0.1c0,0,0.1,0,0.1,0c0.3,0,0.5-0.2,0.6-0.5V8l-1-0.2V14.3z"/>
	<path class="st5" d="M15.7,21.4c-0.2,0-0.4-0.1-0.7-0.1c-0.6,0-1.2,0.2-1.7,0.4h3.4C16.4,21.7,16.1,21.5,15.7,21.4z"/>
	<polygon class="st5" points="19.8,18.9 20.4,16 19.2,15.3 18.5,18.9 	"/>
	<path class="st6" d="M28.5,7.1v0.6C28.9,8,29.1,8.5,29,8.9l-0.5,2.8v2.6c0-0.1,0.1-0.2,0.1-0.3l0.9-5C29.7,8.2,29.3,7.4,28.5,7.1z"
		/>
	<path class="st6" d="M15.1,29c-0.3,0-0.5,0-0.8-0.1c-0.5-0.1-0.9-0.3-1.3-0.5h-0.9c0.6,0.5,1.3,0.9,2.1,1c0.3,0.1,0.6,0.1,0.9,0.1
		c1.1,0,2.2-0.4,3-1.1h-0.9C16.5,28.8,15.8,29,15.1,29z"/>
	<polygon class="st6" points="20.9,16.3 21.4,16.5 21.7,14.5 26.5,15.4 26.5,14.9 21.3,13.9 	"/>
	<polygon class="st6" points="20.4,18.9 20.1,20.5 20.6,20.5 20.9,18.9 	"/>
	<polygon class="st6" points="17.4,18.9 17.1,20.5 17.7,20.5 18,18.9 	"/>
	<path class="st6" d="M15.1,20.3c-0.5,0-0.9,0.1-1.3,0.2h2.7c-0.2-0.1-0.3-0.1-0.5-0.1C15.6,20.3,15.3,20.3,15.1,20.3z"/>
	<path class="st6" d="M21.3,5.8c-0.8,0-1.5,0.6-1.7,1.4l-1.4,7.6l0.5,0.3l1.5-7.8c0.1-0.6,0.6-1,1.2-1c0.1,0,0.1,0,0.2,0l5,0.9V6.7
		l-4.9-0.9C21.5,5.8,21.4,5.8,21.3,5.8z"/>
	<path class="st6" d="M27.5,6.9v0.6l0.6,0.1c0.2,0,0.3,0.1,0.4,0.2V7.1c-0.1,0-0.2-0.1-0.3-0.1L27.5,6.9z"/>
	<path class="st6" d="M19.6,25.8l0.7-4h-0.6l-0.7,3.9c-0.2,1.2-1,2.2-2,2.8H18C18.8,27.8,19.4,26.9,19.6,25.8z"/>
	<path class="st6" d="M11.7,27.3c-0.6-0.9-0.9-2-0.6-3.1c0.2-0.9,0.7-1.8,1.4-2.4h-0.8c-0.6,0.6-1,1.4-1.1,2.3
		c-0.3,1.7,0.4,3.4,1.6,4.4H13C12.5,28.2,12,27.8,11.7,27.3z"/>
	<path class="st6" d="M28.1,14c-0.1,0.3-0.3,0.6-0.6,0.8v0.6c0.4-0.2,0.8-0.5,1-1v-2.6L28.1,14z"/>
	<path class="st6" d="M26.7,14.9l-0.2,0v0.6l0.1,0c0.1,0,0.2,0,0.3,0c0.2,0,0.4,0,0.6-0.1v-0.6c-0.2,0.1-0.4,0.2-0.6,0.2
		C26.9,14.9,26.8,14.9,26.7,14.9z"/>
	<polygon class="st6" points="20.1,20.5 19.8,21.8 20.4,21.8 20.6,20.5 	"/>
	<path class="st6" d="M15.8,20.9c0.6,0.1,1.2,0.4,1.6,0.7l0.2-1.1h-0.6l0,0.3c-0.2-0.1-0.4-0.2-0.7-0.3h-2.7
		c-0.8,0.2-1.6,0.7-2.1,1.3h0.8c0.7-0.6,1.7-1,2.7-1C15.3,20.8,15.6,20.9,15.8,20.9z"/>
	<polygon class="st6" points="26.5,7.3 27.5,7.5 27.5,6.9 26.5,6.7 	"/>
	<polygon class="st6" points="20.9,18.9 21.4,16.5 20.9,16.3 20.4,18.9 	"/>
	<polygon class="st6" points="18.2,14.8 17.4,18.9 18,18.9 18.7,15 	"/>
	<path class="st6" d="M13,28.5c0.4,0.2,0.8,0.4,1.3,0.5c0.3,0,0.5,0.1,0.8,0.1c0.7,0,1.4-0.2,2-0.5h-2H13z"/>
	<path class="st6" d="M29,8.9c0.1-0.5-0.1-1-0.5-1.2v4L29,8.9z"/>
	<polygon class="st6" points="18,18.9 17.7,20.5 18.2,20.5 18.5,18.9 	"/>
	<polygon class="st6" points="20.4,16 20.9,16.3 21.3,13.9 26.5,14.9 26.5,14.3 20.9,13.2 	"/>
	<path class="st6" d="M21.3,6.3c-0.6,0-1,0.4-1.2,1L18.7,15l0.5,0.3l1.5-7.9c0.1-0.3,0.3-0.5,0.6-0.5c0,0,0.1,0,0.1,0l5.1,1V7.3
		l-5-0.9C21.5,6.3,21.4,6.3,21.3,6.3z"/>
	<polygon class="st6" points="19.8,18.9 19.5,20.5 20.1,20.5 20.4,18.9 	"/>
	<path class="st6" d="M27.5,7.5V8L28,8.1c0.3,0.1,0.6,0.4,0.5,0.7l-0.9,5c0,0,0,0,0,0v0.8c0.3-0.2,0.5-0.4,0.6-0.8l0.4-2.2v-4
		c-0.1-0.1-0.3-0.1-0.4-0.2L27.5,7.5z"/>
	<path class="st6" d="M18.6,25.6c-0.3,1.7-1.8,2.9-3.5,2.9h2c1-0.6,1.8-1.6,2-2.8l0.7-3.9h-0.6L18.6,25.6z"/>
	<path class="st6" d="M14.4,28.4c-1.9-0.4-3.2-2.2-2.8-4.2c0.2-1.1,0.9-2,1.8-2.5h-0.9c-0.7,0.6-1.2,1.4-1.4,2.4
		c-0.2,1.1,0,2.2,0.6,3.1c0.4,0.5,0.8,0.9,1.4,1.2h2C14.8,28.5,14.6,28.5,14.4,28.4z"/>
	<path class="st6" d="M17.8,22.7l0.2-0.9h-1.2C17.2,22.1,17.5,22.4,17.8,22.7z"/>
	<polygon class="st6" points="26.5,7.8 27.5,8 27.5,7.5 26.5,7.3 	"/>
	<path class="st6" d="M15.1,21.4c0.2,0,0.4,0,0.7,0.1c0.4,0.1,0.7,0.2,1,0.4H18l0.2-1.3h-0.6l-0.2,1.1c-0.5-0.4-1.1-0.6-1.6-0.7
		c-0.3,0-0.5-0.1-0.8-0.1c-1,0-1.9,0.4-2.7,1h0.9C13.9,21.5,14.4,21.4,15.1,21.4z"/>
	<polygon class="st6" points="19.5,20.5 19.3,21.8 19.8,21.8 20.1,20.5 	"/>
	<path class="st6" d="M26.9,14.4c0,0-0.1,0-0.1,0l-0.3-0.1v0.6l0.2,0c0.1,0,0.1,0,0.2,0c0.2,0,0.4-0.1,0.6-0.2v-0.8
		C27.5,14.2,27.2,14.4,26.9,14.4z"/>
	<polygon class="st6" points="20.4,18.9 20.9,16.3 20.4,16 19.8,18.9 	"/>
	<polygon class="st6" points="18,18.9 18.5,18.9 19.2,15.3 18.7,15 	"/>
</g>
<g class="st0">
	<path class="st6" d="M8.8,10.8c1.3,0,2.3-1,2.3-2.3c0-1.3-1-2.3-2.3-2.3c-1.3,0-2.3,1-2.3,2.3C6.5,9.7,7.5,10.8,8.8,10.8z"/>
	<path class="st6" d="M28.5,7.1V1.5h-27v27h10.6c0.6,0.5,1.3,0.9,2.1,1c0.3,0.1,0.6,0.1,0.9,0.1c1.1,0,2.2-0.4,3-1.1h10.5V14.4
		c0-0.1,0.1-0.2,0.1-0.3l0.9-5C29.7,8.2,29.3,7.4,28.5,7.1z M20.9,18.9h4.6l-4.2-2.3l0.4-2l4.8,0.9v5.1h-5.9L20.9,18.9z M27.5,13.9
		C27.5,13.9,27.5,13.9,27.5,13.9c-0.1,0.3-0.3,0.5-0.6,0.5c0,0-0.1,0-0.1,0l-0.3-0.1l-5.6-1.1L20.4,16l-0.5,2.9l-0.3,1.6l-0.2,1.3
		l-0.7,3.8c-0.3,1.7-1.8,2.9-3.5,2.9c-0.2,0-0.4,0-0.7-0.1c-1.9-0.4-3.2-2.2-2.8-4.2c0.2-1.1,0.9-2,1.8-2.5c0.5-0.3,1.1-0.4,1.7-0.4
		c0.2,0,0.4,0,0.7,0.1c0.4,0.1,0.7,0.2,1,0.4c0.4,0.2,0.8,0.5,1.1,0.9l0.2-0.9l0.2-1.3l0.3-1.6l0.7-3.6l1.5-7.9
		c0.1-0.3,0.3-0.5,0.6-0.5c0,0,0.1,0,0.1,0l5.1,1l1,0.2L28,8.1c0.3,0.1,0.6,0.4,0.5,0.7L27.5,13.9z M3.5,3.5h23v3.2l-4.9-0.9
		c-0.1,0-0.2,0-0.3,0c-0.8,0-1.5,0.6-1.7,1.4l-1.4,7.6l-0.8-0.4l-1.8,2l-5.8-3.8l-4.4,6.4h11.9l-0.3,1.6h-0.7
		c-0.2-0.1-0.3-0.1-0.5-0.1c-0.3-0.1-0.6-0.1-0.9-0.1c-0.5,0-0.9,0.1-1.3,0.2H3.5V3.5z"/>
</g>
<polygon class="st7" points="1.4,20.5 1.4,3.5 1.4,3.5 3.5,20.5 "/>
<g>
	<polygon class="st8" points="21.4,16.5 25.6,18.9 20.9,18.9 20.6,20.5 26.5,20.5 26.5,15.4 21.7,14.5 	"/>
	<path class="st8" d="M28,8.1L27.5,8l-1-0.2l-5.1-1c0,0-0.1,0-0.1,0c-0.3,0-0.6,0.2-0.6,0.5l-1.5,7.9l-0.7,3.6l-0.3,1.6L18,21.8
		l-0.2,0.9c-0.3-0.4-0.6-0.7-1.1-0.9c-0.3-0.2-0.7-0.3-1-0.4c-0.2,0-0.4-0.1-0.7-0.1c-0.6,0-1.2,0.2-1.7,0.4
		c-0.9,0.5-1.6,1.4-1.8,2.5c-0.4,1.9,0.9,3.8,2.8,4.2c0.2,0,0.4,0.1,0.7,0.1c1.7,0,3.2-1.2,3.5-2.9l0.7-3.8l0.2-1.3l0.3-1.6l0.5-2.9
		l0.5-2.7l5.6,1.1l0.3,0.1c0,0,0.1,0,0.1,0c0.3,0,0.5-0.2,0.6-0.5c0,0,0,0,0,0l0.9-5C28.6,8.5,28.3,8.2,28,8.1z"/>
	<path class="st8" d="M15.1,20.3c0.3,0,0.6,0,0.9,0.1c0.2,0,0.3,0.1,0.5,0.1h0.7l0.3-1.6H5.5l4.4-6.4l5.8,3.8l1.8-2l0.8,0.4l1.4-7.6
		c0.2-0.8,0.9-1.4,1.7-1.4c0.1,0,0.2,0,0.3,0l4.9,0.9V3.5H1.4v17h12.4C14.2,20.4,14.6,20.3,15.1,20.3z M10.8,6.1
		c1.3,0,2.3,1,2.3,2.3c0,1.3-1,2.3-2.3,2.3c-1.3,0-2.3-1-2.3-2.3C8.5,7.2,9.5,6.1,10.8,6.1z M3.8,18.9H2.3v-1.1h1.6V18.9z M3.8,16.7
		H2.3v-1.1h1.6V16.7z M3.8,14.6H2.3v-1.1h1.6V14.6z M3.8,12.4H2.3v-1.1h1.6V12.4z M3.8,10.3H2.3V9.2h1.6V10.3z M3.8,8.1H2.3V7h1.6
		V8.1z M3.8,6H2.3V4.9h1.6V6z"/>
</g>
</svg>
