<?xml version="1.0" encoding="utf-8"?>
<!-- Generator: Adobe Illustrator 23.0.0, SVG Export Plug-In . SVG Version: 6.00 Build 0)  -->
<svg version="1.1" id="Capa_1" xmlns="http://www.w3.org/2000/svg" xmlns:xlink="http://www.w3.org/1999/xlink" x="0px" y="0px"
	 viewBox="0 0 12 12" style="enable-background:new 0 0 12 12;" xml:space="preserve">
<style type="text/css">
	.st0{display:none;}
	.st1{display:inline;fill:#4D4D4D;}
	.st2{fill:#FFFFFF;stroke:#000000;stroke-width:0.75;stroke-linecap:round;stroke-miterlimit:10;}
	.st3{fill:#FFFFFF;stroke:#000000;stroke-width:0.2;stroke-linecap:round;stroke-miterlimit:10;}
	.st4{fill:none;stroke:#000000;stroke-width:0.2;stroke-linecap:round;stroke-miterlimit:10;}
</style>
<g class="st0">
	<path class="st1" d="M13,13.8c0,0.1-14.4-1.1-14.5-1.2c0,0,0.3-13.9,0.3-14s14.3-0.5,14.4-0.4C13.3-1.7,13,13.8,13,13.8z"/>
</g>
<g>
	<g>
		<path d="M1.5,3.2C1.6,3.4,1.8,3.5,2,3.5h8c0.2,0,0.3,0.1,0.3,0.3V9c0,0.2-0.2,0.4-0.4,0.4H1.9C1.6,9.4,1.5,9.2,1.5,9V3.2 M8.9,2.3
			H1.9C1.5,2.3,1.1,2.6,1.1,3v6c0,0.4,0.3,0.7,0.7,0.7h8.1c0.4,0,0.7-0.3,0.7-0.7V3.8c0-0.4-0.3-0.7-0.7-0.7H2
			C1.8,3.1,1.7,3,1.7,2.9c0-0.1,0.1-0.3,0.3-0.3h7.6C9.4,2.4,9.2,2.3,8.9,2.3L8.9,2.3z"/>
	</g>
	<g>
		<path d="M10.4,5.8v1.4H8.2C8.1,7.2,8,7,8,6.9V6c0-0.2,0.1-0.3,0.3-0.3H10.4 M10.5,5.4H8.2C7.9,5.4,7.6,5.7,7.6,6v0.9
			c0,0.3,0.3,0.6,0.6,0.6h2.3c0.1,0,0.2-0.1,0.2-0.2V5.6C10.8,5.5,10.7,5.4,10.5,5.4L10.5,5.4z"/>
	</g>
	<line class="st2" x1="8.9" y1="6.5" x2="8.9" y2="6.5"/>
	<line class="st3" x1="9.5" y1="2.9" x2="2.2" y2="2.9"/>
</g>
<g>
	<line class="st4" x1="1.8" y1="4.1" x2="1.8" y2="3.4"/>
	<line class="st4" x1="1.8" y1="7.7" x2="1.8" y2="7.5"/>
	<line class="st4" x1="1.8" y1="9.5" x2="1.8" y2="8.3"/>
</g>
</svg>
