<?xml version="1.0" encoding="utf-8"?>
<!-- Generator: Adobe Illustrator 23.0.0, SVG Export Plug-In . SVG Version: 6.00 Build 0)  -->
<svg version="1.1" id="Capa_1" xmlns="http://www.w3.org/2000/svg" xmlns:xlink="http://www.w3.org/1999/xlink" x="0px" y="0px"
	 viewBox="0 0 12 12" style="enable-background:new 0 0 12 12;" xml:space="preserve">
<style type="text/css">
	.st0{display:none;}
	.st1{display:inline;fill:#4D4D4D;}
	.st2{fill:#FFFFFF;}
</style>
<g class="st0">
	<path class="st1" d="M12,1.9l-5.5,8.4c0,0.1-0.1,0.1-0.2,0.1l0,0c-0.1,0-0.1,0-0.2-0.1L0,1.9c0-0.1,0-0.1,0-0.2s0.1-0.1,0.2-0.1
		h11.6c0.1,0,0.1,0,0.2,0.1C12,1.8,12,1.8,12,1.9z"/>
</g>
<g>
	<path class="st2" d="M1.7,3.5C1.3,3.5,1,3.8,1,4.2v5.7c0,0.4,0.3,0.7,0.7,0.7h8.7c0.4,0,0.7-0.3,0.7-0.7V9H8H7V8V7V6V5h1h3V3.5H1.7
		z"/>
	<polygon class="st2" points="8,7 8,8 11,8 11,7 11,6 8,6 	"/>
	<path class="st2" d="M1.5,2.5H10l-1-1H1.5C1.2,1.5,1,1.7,1,2S1.2,2.5,1.5,2.5z"/>
</g>
</svg>
