<?xml version="1.0" encoding="utf-8"?>
<!-- Generator: Adobe Illustrator 23.0.0, SVG Export Plug-In . SVG Version: 6.00 Build 0)  -->
<svg version="1.1" id="Layer_1" xmlns="http://www.w3.org/2000/svg" xmlns:xlink="http://www.w3.org/1999/xlink" x="0px" y="0px"
	 viewBox="0 0 28 28" style="enable-background:new 0 0 28 28;" xml:space="preserve">
<style type="text/css">
	.st0{fill:#FFFFFF;}
	.st1{fill:#3B99FC;}
</style>
<rect class="st0" width="28" height="28"/>
<path class="st1" d="M7.6,9.8c3.6-3.6,9.4-3.6,13,0l0.5,0.5c0.2,0.2,0.2,0.5,0,0.7l-1.5,1.5c-0.1,0.1-0.2,0.1-0.3,0l-0.6-0.6
	c-2.5-2.5-6.6-2.5-9,0L9,12.5c-0.1,0.1-0.2,0.1-0.3,0l-1.5-1.6c-0.2-0.2-0.2-0.5,0-0.7L7.6,9.8z M23.6,12.8l1.3,1.3
	c0.2,0.2,0.2,0.5,0,0.7l-5.9,5.9c-0.2,0.2-0.5,0.2-0.7,0l0,0l-4.2-4.2h-0.1l0,0l-4.2,4.2c-0.2,0.2-0.5,0.2-0.7,0l0,0l-5.9-5.9
	c-0.2-0.2-0.2-0.5,0-0.7l1.3-1.3c0.2-0.2,0.5-0.2,0.7,0L9.3,17h0.1l0,0l4.2-4.2c0.2-0.2,0.5-0.2,0.7,0l0,0l4.2,4.2h0.1l4.2-4.2
	C23.1,12.7,23.4,12.7,23.6,12.8z"/>
</svg>
