<?xml version="1.0" encoding="utf-8"?>
<!-- Generator: Adobe Illustrator 23.0.0, SVG Export Plug-In . SVG Version: 6.00 Build 0)  -->
<svg version="1.1" id="Layer_1" xmlns="http://www.w3.org/2000/svg" xmlns:xlink="http://www.w3.org/1999/xlink" x="0px" y="0px"
	 viewBox="0 0 3000 2000" style="enable-background:new 0 0 3000 2000;" xml:space="preserve">
<style type="text/css">
	.st0{fill:none;}
	.st1{fill:none;stroke:#231F20;stroke-width:6;}
	.st2{display:none;}
	.st3{display:inline;}
	.st4{display:inline;fill:#FFFFFF;}
	.st5{display:none;fill:url(#_x36__lpi_50_x25_);}
	.st6{fill:#FFFF00;}
	.st7{fill:#4D4D4D;}
	.st8{fill:#333333;}
</style>
<pattern  x="500" width="72" height="72" patternUnits="userSpaceOnUse" id="_x36__lpi_50_x25_" viewBox="72.3 -72 72 72" style="overflow:visible;">
	<g>
		<rect x="72.3" y="-72" class="st0" width="72" height="72"/>
		<g>
			<line class="st1" x1="144" y1="-6" x2="216.5" y2="-6"/>
			<line class="st1" x1="144" y1="-30" x2="216.5" y2="-30"/>
			<line class="st1" x1="144" y1="-54" x2="216.5" y2="-54"/>
			<line class="st1" x1="144" y1="-18" x2="216.5" y2="-18"/>
			<line class="st1" x1="144" y1="-42" x2="216.5" y2="-42"/>
			<line class="st1" x1="144" y1="-66" x2="216.5" y2="-66"/>
		</g>
		<g>
			<line class="st1" x1="72" y1="-6" x2="144.5" y2="-6"/>
			<line class="st1" x1="72" y1="-30" x2="144.5" y2="-30"/>
			<line class="st1" x1="72" y1="-54" x2="144.5" y2="-54"/>
			<line class="st1" x1="72" y1="-18" x2="144.5" y2="-18"/>
			<line class="st1" x1="72" y1="-42" x2="144.5" y2="-42"/>
			<line class="st1" x1="72" y1="-66" x2="144.5" y2="-66"/>
		</g>
		<g>
			<line class="st1" x1="0" y1="-6" x2="72.5" y2="-6"/>
			<line class="st1" x1="0" y1="-30" x2="72.5" y2="-30"/>
			<line class="st1" x1="0" y1="-54" x2="72.5" y2="-54"/>
			<line class="st1" x1="0" y1="-18" x2="72.5" y2="-18"/>
			<line class="st1" x1="0" y1="-42" x2="72.5" y2="-42"/>
			<line class="st1" x1="0" y1="-66" x2="72.5" y2="-66"/>
		</g>
	</g>
</pattern>
<g class="st2">
	<circle class="st3" cx="1500" cy="1000" r="950"/>
</g>
<g class="st2">
	<path class="st4" d="M1457.1,1919c-34.6-1.6-69.1-5.1-103.2-10.5v-591.6c0-48.4-13.8-95.6-39.9-136.3L809.2,392.4
		c32.7-37.2,68.5-71.8,106.7-103.2c34.9-28.7,71.9-54.8,110.5-78.1L1401,765.5c21.9,32.4,58.3,51.8,97.5,51.8
		c39.2,0,75.6-19.4,97.5-51.9l374.6-556c39,23.3,76.3,49.4,111.5,78.2c38.4,31.4,74.3,66,107.3,103.2l-512.3,792.9
		c-24.9,38.5-38.1,83.2-38.1,129.1v596.7c-31.8,4.8-64,8-96.1,9.5H1457.1z"/>
</g>
<g class="st2">
	<path class="st4" d="M2450,83.7l-726.1,1123.9c-15.1,23.4-23.2,50.7-23.2,78.5V1996h-407.9v-706.2c0-30.3-8.7-59.9-25-85.4
		L550,83.7h474.3L1470,743.3c13.7,20.3,43.5,20.2,57.2,0l444.4-659.6H2450z"/>
</g>
<polygon class="st5" points="1753.6,1112 1674.6,1302.2 1714.9,931.4 1893.7,1110.2 2083,100 2362,100 1962.2,1320.7 "/>
<circle class="st2" cx="1500" cy="1000" r="1000"/>
<g class="st2">
	<g class="st3">
		<polygon class="st6" points="1319.3,934.8 1532.9,1148.4 1694.9,283.5 2079.1,283.5 1658.3,1568.4 1499.8,1409.9 1319.3,1896.5 		
			"/>
	</g>
	<g class="st3">
		<polygon class="st6" points="920.9,831 920.9,283.5 1189,283.5 1189,1099.1 		"/>
	</g>
</g>
<polygon class="st0" points="2436.4,1797.7 2476.8,1677.1 1833.1,1580.7 2395.9,1918.2 "/>
<polygon class="st0" points="2476.8,1677.1 2476.8,1677.1 2436.4,1797.7 "/>
<g>
	<g>
		<polygon class="st7" points="1716.9,50 1697.6,152.9 1686,215.1 1625.6,537.3 1981.4,431.7 2037.7,259.7 2062.5,184.1 2106.4,50 
					"/>
		<polygon class="st7" points="1537.5,1007.8 1324.5,794.8 1309.4,800 1309.4,1030.5 1309.4,1247.3 1309.4,1502.2 1386.4,1513.8 
			1451.7,1337.9 1487.5,1241.3 1659.8,1413.6 1713.2,1250.7 1930.4,587.6 1594.7,702.4 		"/>
		<polygon class="st7" points="874.6,82.7 874.6,112.1 874.6,628.3 976.2,730 1140.2,681.3 1140.2,145.8 1140.2,105.4 1140.2,50 
			874.6,50 		"/>
		<polygon class="st7" points="1140.2,893.9 1140.2,857.8 1113.3,867 		"/>
	</g>
	<g>
		<polygon class="st8" points="1647.6,148.7 1190.2,109.7 1190.2,152.2 1636.3,208.8 		"/>
		<polygon class="st8" points="824.6,78.5 168.5,22.5 824.6,105.8 		"/>
		<polygon class="st8" points="1748.5,1303.4 1688,1488.3 1833.1,1580.7 1437,1521.3 1386.4,1513.8 1309.4,1502.2 1259.4,1494.8 
			56.7,1314.6 10.7,1671.7 1259.4,1806.5 1328.4,1813.9 2392.3,1928.7 2395.9,1918.2 2395.9,1918.2 2436.4,1797.7 2476.8,1677.1 
			2479.7,1668.6 1757.8,1275 		"/>
		<polygon class="st8" points="1494.8,1365.3 1621.5,1446 1507.3,1331.7 		"/>
		<polygon class="st8" points="1259.4,1003.3 1190.2,965.6 1190.2,1014.6 1082.3,906.7 1049.5,888.8 1060.6,885.1 1113.3,867 
			1140.2,857.8 1190.2,840.7 1259.4,817.1 1309.4,800 1324.5,794.8 1377.2,776.8 1540.3,721 1594.7,702.4 1930.4,587.6 
			1989.6,567.3 2648.4,342 2647.9,337.1 2642.8,287.1 2637.7,237.1 2637.3,233.1 2113.7,188.4 2088.3,266.1 2404.4,306.2 
			2039.7,414.5 1981.4,431.7 1625.6,537.3 1571.8,553.3 1190.2,666.5 1140.2,681.3 976.2,730 921.7,746.1 872.9,760.6 868.3,804 
			852.2,956.3 1259.4,1215.5 		"/>
	</g>
</g>
</svg>
