<?xml version="1.0" encoding="utf-8"?>
<!-- Generator: Adobe Illustrator 23.0.0, SVG Export Plug-In . SVG Version: 6.00 Build 0)  -->
<svg version="1.1" id="Layer_1" xmlns="http://www.w3.org/2000/svg" xmlns:xlink="http://www.w3.org/1999/xlink" x="0px" y="0px"
	 viewBox="0 0 2000 2000" style="enable-background:new 0 0 2000 2000;" xml:space="preserve">
<style type="text/css">
	.st0{fill:none;}
	.st1{fill:none;stroke:#231F20;stroke-width:6;}
	.st2{display:none;}
	.st3{display:inline;}
	.st4{display:inline;fill:#FFFFFF;}
	.st5{display:none;fill:url(#_x36__lpi_50_x25_);}
	.st6{fill:#FFFF00;}
</style>
<pattern  width="72" height="72" patternUnits="userSpaceOnUse" id="_x36__lpi_50_x25_" viewBox="72.3 -72 72 72" style="overflow:visible;">
	<g>
		<rect x="72.3" y="-72" class="st0" width="72" height="72"/>
		<g>
			<line class="st1" x1="144" y1="-6" x2="216.5" y2="-6"/>
			<line class="st1" x1="144" y1="-30" x2="216.5" y2="-30"/>
			<line class="st1" x1="144" y1="-54" x2="216.5" y2="-54"/>
			<line class="st1" x1="144" y1="-18" x2="216.5" y2="-18"/>
			<line class="st1" x1="144" y1="-42" x2="216.5" y2="-42"/>
			<line class="st1" x1="144" y1="-66" x2="216.5" y2="-66"/>
		</g>
		<g>
			<line class="st1" x1="72" y1="-6" x2="144.5" y2="-6"/>
			<line class="st1" x1="72" y1="-30" x2="144.5" y2="-30"/>
			<line class="st1" x1="72" y1="-54" x2="144.5" y2="-54"/>
			<line class="st1" x1="72" y1="-18" x2="144.5" y2="-18"/>
			<line class="st1" x1="72" y1="-42" x2="144.5" y2="-42"/>
			<line class="st1" x1="72" y1="-66" x2="144.5" y2="-66"/>
		</g>
		<g>
			<line class="st1" x1="0" y1="-6" x2="72.5" y2="-6"/>
			<line class="st1" x1="0" y1="-30" x2="72.5" y2="-30"/>
			<line class="st1" x1="0" y1="-54" x2="72.5" y2="-54"/>
			<line class="st1" x1="0" y1="-18" x2="72.5" y2="-18"/>
			<line class="st1" x1="0" y1="-42" x2="72.5" y2="-42"/>
			<line class="st1" x1="0" y1="-66" x2="72.5" y2="-66"/>
		</g>
	</g>
</pattern>
<g class="st2">
	<circle class="st3" cx="1000" cy="1000" r="950"/>
</g>
<g class="st2">
	<path class="st4" d="M957.1,1919c-34.6-1.6-69.1-5.1-103.2-10.5v-591.6c0-48.4-13.8-95.6-39.9-136.3L309.2,392.4
		c32.7-37.2,68.5-71.8,106.7-103.2c34.9-28.7,71.9-54.8,110.5-78.1L901,765.5c21.9,32.4,58.3,51.8,97.5,51.8
		c39.2,0,75.6-19.4,97.5-51.9l374.6-556c39,23.3,76.3,49.4,111.5,78.2c38.4,31.4,74.3,66,107.3,103.2l-512.3,792.9
		c-24.9,38.5-38.1,83.2-38.1,129.1v596.7c-31.8,4.8-64,8-96.1,9.5H957.1z"/>
</g>
<g class="st2">
	<path class="st4" d="M1950,83.7l-726.1,1123.9c-15.1,23.4-23.2,50.7-23.2,78.5V1996H792.8v-706.2c0-30.3-8.7-59.9-25-85.4L50,83.7
		h474.3L970,743.3c13.7,20.3,43.5,20.2,57.2,0l444.4-659.6H1950z"/>
</g>
<polygon class="st5" points="1253.6,1112 1174.6,1302.2 1214.9,931.4 1393.7,1110.2 1583,100 1862,100 1462.2,1320.7 "/>
<circle class="st2" cx="1000" cy="1000" r="1000"/>
<g>
	<g>
		<polygon points="1175.4,0 1005.8,905.4 759.4,659 759.4,2000 1007.3,1331.7 1182,1506.5 1248.5,1303.4 1286.8,1186.4 1675.4,0 		
			"/>
		<polygon class="st6" points="809.4,779.7 1037.5,1007.8 1216.9,50 1606.4,50 1159.8,1413.6 987.5,1241.3 809.4,1721.5 		"/>
	</g>
	<g>
		<polygon points="324.6,0 324.6,649 690.2,1014.6 690.2,0 		"/>
		<polygon class="st6" points="374.6,628.3 374.6,50 640.2,50 640.2,893.9 		"/>
	</g>
</g>
<g class="st2">
	<g class="st3">
		<polygon class="st6" points="819.3,934.8 1032.9,1148.4 1194.9,283.5 1579.1,283.5 1158.3,1568.4 999.8,1409.9 819.3,1896.5 		"/>
	</g>
	<g class="st3">
		<polygon class="st6" points="420.9,831 420.9,283.5 689,283.5 689,1099.1 		"/>
	</g>
</g>
</svg>
