<?xml version="1.0" encoding="utf-8"?>
<!-- Generator: Adobe Illustrator 23.0.0, SVG Export Plug-In . SVG Version: 6.00 Build 0)  -->
<svg version="1.1" id="Layer_1" xmlns="http://www.w3.org/2000/svg" xmlns:xlink="http://www.w3.org/1999/xlink" x="0px" y="0px"
	 viewBox="0 0 3000 2000" style="enable-background:new 0 0 3000 2000;" xml:space="preserve">
<style type="text/css">
	.st0{fill:none;}
	.st1{fill:none;stroke:#231F20;stroke-width:6;}
	.st2{fill:#DDDDDD;}
	.st3{fill:#008080;}
	.st4{display:none;}
	.st5{display:inline;}
	.st6{display:inline;fill:#FFFFFF;}
	.st7{display:none;fill:url(#SVGID_1_);}
	.st8{fill:#FFFF00;}
	.st9{fill:#00FFFF;}
	.st10{fill:#00BFBF;}
	.st11{fill:#1B1464;}
	.st12{fill:#0071BC;}
	.st13{display:inline;fill:#808080;}
	.st14{fill:#095959;}
</style>
<pattern  y="2000" width="72" height="72" patternUnits="userSpaceOnUse" id="SVGID_5_" viewBox="72.3 -72 72 72" style="overflow:visible;">
	<g>
		<rect x="72.3" y="-72" class="st0" width="72" height="72"/>
		<g>
			<rect x="72.3" y="-72" class="st0" width="72" height="72"/>
			<g>
				<rect x="72.3" y="-72" class="st0" width="72" height="72"/>
				<g>
					<line class="st1" x1="144" y1="-6" x2="216.5" y2="-6"/>
					<line class="st1" x1="144" y1="-30" x2="216.5" y2="-30"/>
					<line class="st1" x1="144" y1="-54" x2="216.5" y2="-54"/>
					<line class="st1" x1="144" y1="-18" x2="216.5" y2="-18"/>
					<line class="st1" x1="144" y1="-42" x2="216.5" y2="-42"/>
					<line class="st1" x1="144" y1="-66" x2="216.5" y2="-66"/>
				</g>
				<g>
					<line class="st1" x1="72" y1="-6" x2="144.5" y2="-6"/>
					<line class="st1" x1="72" y1="-30" x2="144.5" y2="-30"/>
					<line class="st1" x1="72" y1="-54" x2="144.5" y2="-54"/>
					<line class="st1" x1="72" y1="-18" x2="144.5" y2="-18"/>
					<line class="st1" x1="72" y1="-42" x2="144.5" y2="-42"/>
					<line class="st1" x1="72" y1="-66" x2="144.5" y2="-66"/>
				</g>
				<g>
					<line class="st1" x1="0" y1="-6" x2="72.5" y2="-6"/>
					<line class="st1" x1="0" y1="-30" x2="72.5" y2="-30"/>
					<line class="st1" x1="0" y1="-54" x2="72.5" y2="-54"/>
					<line class="st1" x1="0" y1="-18" x2="72.5" y2="-18"/>
					<line class="st1" x1="0" y1="-42" x2="72.5" y2="-42"/>
					<line class="st1" x1="0" y1="-66" x2="72.5" y2="-66"/>
				</g>
			</g>
		</g>
	</g>
</pattern>
<rect x="-81.8" y="-31.8" class="st2" width="3125.1" height="2068.1"/>
<polygon class="st3" points="1473.1,233.1 667.3,109.7 667.3,233.1 1473.1,293.6 "/>
<g class="st4">
	<circle class="st5" cx="1500" cy="1000" r="950"/>
</g>
<g class="st4">
	<path class="st6" d="M1457.1,1919c-34.6-1.6-69.1-5.1-103.2-10.5v-591.6c0-48.4-13.8-95.6-39.9-136.3L809.2,392.4
		c32.7-37.2,68.5-71.8,106.7-103.2c34.9-28.7,71.9-54.8,110.5-78.1L1401,765.5c21.9,32.4,58.3,51.8,97.5,51.8s75.6-19.4,97.5-51.9
		l374.6-556c39,23.3,76.3,49.4,111.5,78.2c38.4,31.4,74.3,66,107.3,103.2l-512.3,792.9c-24.9,38.5-38.1,83.2-38.1,129.1v596.7
		c-31.8,4.8-64,8-96.1,9.5H1457.1z"/>
</g>
<g class="st4">
	<path class="st6" d="M2450,83.7l-726.1,1123.9c-15.1,23.4-23.2,50.7-23.2,78.5V1996h-407.9v-706.2c0-30.3-8.7-59.9-25-85.4
		L550,83.7h474.3L1470,743.3c13.7,20.3,43.5,20.2,57.2,0l444.4-659.6L2450,83.7L2450,83.7z"/>
</g>
<pattern  id="SVGID_1_" xlink:href="#SVGID_5_" patternTransform="matrix(1 0 0 1 219.4 16528)">
</pattern>
<polygon class="st7" points="1753.6,1112 1674.6,1302.2 1714.9,931.4 1893.7,1110.2 2083,100 2362,100 1962.2,1320.7 "/>
<circle class="st4" cx="1500" cy="1000" r="1000"/>
<g class="st4">
	<g class="st5">
		<polygon class="st8" points="1319.3,934.8 1532.9,1148.4 1694.9,283.5 2079.1,283.5 1658.3,1568.4 1499.8,1409.9 1319.3,1896.5 		
			"/>
	</g>
	<g class="st5">
		<polygon class="st8" points="920.9,831 920.9,283.5 1189,283.5 1189,1099.1 		"/>
	</g>
</g>
<polygon class="st9" points="874.6,82.7 874.6,112.1 874.6,628.3 976.2,730 1140.2,681.3 1140.2,145.8 1140.2,105.4 1140.2,50 
	874.6,50 "/>
<polygon class="st10" points="-181.4,956.3 1473.1,233.1 1473.1,293.6 -248.8,1476.1 "/>
<polygon class="st10" points="1259.4,412.4 2312.6,-126.8 3110.7,-54.3 1293.5,634.9 "/>
<g>
	<polygon class="st9" points="1716.9,50 1697.6,152.9 1686,215.1 1625.6,537.3 1981.4,431.7 2037.7,259.7 2062.5,184.1 2106.4,50 	
		"/>
	<polygon class="st9" points="1537.5,1007.8 1324.5,794.8 1309.4,800 1309.4,1030.5 1309.4,1247.3 1309.4,1502.2 1386.4,1513.8 
		1451.7,1337.9 1487.5,1241.3 1659.8,1413.6 1713.2,1250.7 1930.4,587.6 1594.7,702.4 	"/>
	<polygon class="st9" points="1140.2,893.9 1140.2,857.8 1113.3,867 	"/>
</g>
<g>
	<polygon class="st11" points="1647.6,148.7 1190.2,109.7 1190.2,152.2 1636.3,208.8 	"/>
	<polygon class="st11" points="824.6,78.5 168.5,22.5 824.6,105.8 	"/>
	<polygon class="st11" points="1494.8,1365.3 1621.5,1446 1507.3,1331.7 	"/>
	<polygon class="st11" points="2476.8,1677.1 1757.8,1275 1748.5,1303.4 1688,1488.3 1833.1,1580.7 	"/>
	<polygon class="st11" points="2637.3,233.1 2113.7,188.4 2088.3,266.1 2404.4,306.2 	"/>
	<polygon class="st11" points="852.2,956.3 852.2,956.3 1259.4,1215.5 1259.4,1003.3 1190.2,965.6 1190.2,1014.6 1082.3,906.7 
		1049.5,888.8 	"/>
</g>
<g>
	<polygon class="st12" points="944.9,1447.7 56.7,1314.6 10.7,1671.7 1259.4,1806.5 1328.4,1813.9 2392.3,1928.7 2395.9,1918.2 
		2395.9,1918.2 2436.4,1797.7 2476.8,1677.1 	"/>
	<polygon class="st12" points="2637.3,233.1 872.9,760.6 852.2,956.3 2648.4,342 	"/>
</g>
<g class="st4">
	<path class="st13" d="M982.8,1907.5c-2.1-18.6-9.7-37.7-24.9-49.6c-5.2-3.4-10.4-6.7-15.5-10.1c-11.3-5.3-23.1-7.6-35.6-6.8
		c-9.7,0.3-18.6,2.9-26.7,7.9c-9.1,3.6-16.7,9.3-22.9,17c-11.2,13.1-18.8,33.8-16.9,51.1c2.1,18.6,9.7,37.7,24.9,49.6
		c5.2,3.4,10.4,6.7,15.5,10.1c11.3,5.3,23.1,7.6,35.6,6.8c9.7-0.3,18.6-2.9,26.7-7.9c9.1-3.6,16.7-9.3,22.9-17
		C977,1945.5,984.7,1924.9,982.8,1907.5z"/>
	<path class="st13" d="M2819.6,141.3c-0.8-12.7-5.3-25.8-15.2-34.3c-9.6-8.3-21.1-13.1-34-13.1c-12.4,0-25.9,6.2-34.3,15.2
		c-8,8.5-13.9,22.2-13.1,34c0.8,12.7,5.3,25.8,15.2,34.3c9.6,8.3,21.1,13.1,34,13.1c12.4,0,25.9-6.2,34.3-15.2
		C2814.4,166.8,2820.3,153.1,2819.6,141.3z"/>
	<path class="st13" d="M613.4,1254.8c-1.2-12.3-5.9-25-15.8-33.1c-10.1-8.3-21.4-12.3-34.6-12.3c-11.9,0-25.3,7.1-33.1,15.8
		c-7.9,8.7-13.4,22.6-12.3,34.6c1.2,12.3,5.9,25,15.8,33.1c10.1,8.3,21.4,12.3,34.6,12.3c11.9,0,25.3-7.1,33.1-15.8
		C609,1280.6,614.5,1266.7,613.4,1254.8z"/>
	<path class="st13" d="M1281.7,1868.8c-0.9-20.5-16.6-38-37.8-38c-19.8,0-38.9,17.3-38,37.8s16.6,38,37.8,38
		C1263.5,1906.6,1282.5,1889.3,1281.7,1868.8z"/>
	<path class="st13" d="M2769.2,1394.9c-2.6-20.2-11.2-40.7-28-53.3l-17-10.6c-12.3-5.5-25.2-7.8-38.7-6.7
		c-10.5,0.5-20.1,3.5-28.8,9.1c-9.7,4-17.9,10.4-24.4,18.9c-6.9,7.8-11.4,16.6-13.5,26.5c-3.7,9.3-5,19.1-3.8,29.3
		c2.6,20.2,11.2,40.7,28,53.3c5.7,3.5,11.4,7.1,17,10.6c12.3,5.5,25.2,7.8,38.7,6.7c10.5-0.5,20.1-3.5,28.8-9.1
		c9.7-4,17.9-10.4,24.4-18.9c6.9-7.8,11.4-16.6,13.5-26.5C2769.2,1414.9,2770.4,1405.1,2769.2,1394.9z"/>
	<path class="st13" d="M2318.6,1373.4c-0.8-6.4-3.5-13-8.8-17.1c-5.5-4.3-11.3-5.8-18.2-5.8c-6.1,0-13.2,4.3-17,8.8
		c-3.9,4.7-6.6,12.1-5.8,18.3c0.8,6.4,3.5,13,8.8,17.1c5.5,4.3,11.3,5.8,18.2,5.8c6.1,0,13.2-4.3,17-8.8
		C2316.7,1387,2319.4,1379.6,2318.6,1373.4z"/>
	<path class="st13" d="M2771.2,1050.7c-0.8-18.8-15.3-34.8-34.8-34.8c-18.2,0-35.6,16-34.8,34.8s15.3,34.8,34.8,34.8
		C2754.6,1085.5,2772,1069.5,2771.2,1050.7z"/>
	<path class="st13" d="M2066.3,1134.6c-12.8-12.2-29.4-21.1-47.6-21.1c-18.3,0-36.8,6.5-50.1,19.3c-11.9,11.5-21.3,30.7-21.1,47.6
		c0.3,18.1,5.8,37.2,19.3,50.1c12.8,12.2,29.4,21.1,47.6,21.1c18.3,0,36.8-6.5,50.1-19.3c11.9-11.5,21.3-30.7,21.1-47.6
		C2085.4,1166.6,2079.8,1147.5,2066.3,1134.6z"/>
	<path class="st13" d="M533.2,531c-7.4,0-14,1.3-19.8,6.2c-5.1,4.3-9.3,11.6-9.7,18.4c-0.6,13.6,9.3,29.5,24.5,29.5
		c7.4,0,14-1.3,19.8-6.2c5.1-4.3,9.3-11.6,9.7-18.4C558.4,546.9,548.4,531,533.2,531z"/>
	<path class="st13" d="M1542.7,479.6c-1.9-27.6-23.2-49-51.4-49c-12.4,0-26.1,6.3-34.7,15.1c-8.7,8.9-15.2,23.6-14.3,36.3
		c1.9,27.6,23.2,49,51.4,49c12.4,0,26.1-6.3,34.7-15.1C1537.1,507,1543.5,492.3,1542.7,479.6z"/>
	<path class="st13" d="M2940.4,683.1c-0.6-14.7-5.5-30-16.6-40.2s-24.8-16.7-40.2-16.7c-14.6,0-29.9,6.3-40.2,16.6
		c-9.9,9.9-17.3,26-16.7,40.2c0.6,14.7,5.5,30,16.6,40.2s24.8,16.7,40.2,16.7c14.6,0,29.9-6.3,40.2-16.6
		C2933.5,713.5,2941,697.3,2940.4,683.1z"/>
	<path class="st13" d="M1505.4,14.1c-15,0-29.6,12.2-29.3,27.9c0.3,15.2,11.9,29.3,27.9,29.3c15,0,29.6-12.2,29.3-27.9
		C1533.1,28.2,1521.4,14.1,1505.4,14.1z"/>
	<path class="st13" d="M418.4,906.5c-2.6-16.3-9.8-32.9-23.4-43.1c-4.8-3-9.5-5.9-14.3-8.9c-10.9-4.9-22.3-6.7-34.1-5.4
		c-8.7,0.7-16.6,3.3-23.7,8c-7.7,3.4-14.2,8.6-19.4,15.4c-10.2,12.5-16.9,32.2-14.3,48.5s9.8,32.9,23.4,43.1c4.8,3,9.5,5.9,14.3,8.9
		c10.9,4.9,22.3,6.7,34.1,5.4c8.7-0.7,16.6-3.3,23.7-8c7.7-3.4,14.2-8.6,19.4-15.4C414.3,942.5,420.9,922.7,418.4,906.5z"/>
	<path class="st13" d="M260.7,1224.9c-0.6-8.3-7-14.5-15.4-14.5c-7.8,0-15.1,7.5-14.5,15.5c0.6,8.3,7,14.5,15.4,14.5
		C254,1240.3,261.3,1232.8,260.7,1224.9z"/>
	<path class="st13" d="M2550.9,1786.3c-17.5,0-34.9,13.4-34.9,32c0,17.5,13.3,34.9,32,34.9c17.5,0,34.9-13.4,34.9-32
		C2582.9,1803.6,2569.6,1786.3,2550.9,1786.3z"/>
	<path class="st13" d="M1618.1,1940.2c-2-17.1-15.2-27.9-31.9-27.9c-7.4,0-16.1,5-20.8,10.6c-4.7,5.5-7.9,14.2-7,21.5
		c2,17.1,15.2,27.9,31.9,27.9c7.4,0,16.1-5,20.8-10.6C1615.7,1956.2,1618.9,1947.5,1618.1,1940.2z"/>
	<path class="st13" d="M687.7,1810.6c-8.2-8.5-19.5-15.6-31.8-15.6c-12.4,0-24,3.1-33.5,11.4c-8.5,7.5-15.4,20.3-15.6,31.8
		c-0.2,12,2.9,24.6,11.4,33.5c8.2,8.5,19.5,15.6,31.8,15.6c12.4,0,24-3.1,33.5-11.4c8.5-7.5,15.4-20.3,15.6-31.8
		C699.4,1832.1,696.3,1819.5,687.7,1810.6z"/>
	<path class="st13" d="M2602.5,525.1c-2.1-13.4-8-27-19.2-35.3c-4.1-2.5-8.1-5-12.2-7.5c-8.8-3.9-18-5.3-27.6-4.3
		c-12.5,0-27.8,9.9-35.3,19.2c-8.4,10.2-13.9,26.4-11.8,39.7c2.1,13.4,8,27,19.2,35.3c4.1,2.5,8.1,5,12.2,7.5
		c8.8,3.9,18,5.3,27.6,4.3c12.5,0,27.8-9.9,35.3-19.2C2599.1,554.6,2604.6,538.4,2602.5,525.1z"/>
	<path class="st13" d="M1292.6,320.4c-13.9,0-13.2,21.6,0.8,21.6C1307.3,342,1306.5,320.4,1292.6,320.4z"/>
	<path class="st13" d="M2529.7,941c-1.4-12.3-2.8-24.6-4.2-36.9c-6.3-25.4-18.6-47.6-36.8-66.4c-10.2-8-20.4-16.1-30.6-24.1
		c-22.1-12.9-45.9-19.5-71.4-20c-19.3-1-37.5,2.6-54.5,11c-18.8,5.5-35.1,15.5-48.9,30c-14.9,13.4-25.4,29.4-31.5,47.9
		c-8.9,16.7-13.1,34.8-12.7,54.1c1.4,12.3,2.8,24.6,4.2,36.9c6.3,25.4,18.6,47.6,36.8,66.4c10.2,8,20.4,16.1,30.6,24.1
		c22.1,12.9,45.9,19.5,71.4,20c19.3,1,37.5-2.6,54.5-11c18.8-5.5,35.1-15.5,48.9-30c14.9-13.4,25.4-29.4,31.5-47.9
		C2525.9,978.4,2530.1,960.4,2529.7,941z"/>
	<path class="st13" d="M2072,727.9c-2.1-22.4-19.5-37.6-41.8-37.6c-20.9,0-39.6,21.2-37.6,41.8c2.1,22.4,19.5,37.6,41.8,37.6
		C2055.3,769.7,2074,748.5,2072,727.9z"/>
	<path class="st13" d="M267.7,526c-1.8-12.5-7.2-25.2-17.5-33.1c-3.8-2.4-7.5-4.7-11.3-7.1c-8.2-3.7-16.7-5.1-25.6-4.2
		c-11.7,0-25.9,8.9-33.1,17.5c-7.9,9.5-13.1,24.5-11.3,36.9c1.8,12.5,7.2,25.2,17.5,33.1c3.8,2.4,7.5,4.7,11.3,7.1
		c8.2,3.7,16.7,5.1,25.6,4.2c11.7,0,25.9-8.9,33.1-17.5C264.3,553.4,269.5,538.4,267.7,526z"/>
	<path class="st13" d="M950.9,1162.3c-3.1-22.2-12.6-44.8-31.1-58.7c-6.6-4.1-13.2-8.2-19.8-12.3c-14-6.2-28.5-8.6-43.7-7.2
		c-11.5,0.7-22.1,4-31.6,10.1c-10.8,4.5-19.8,11.5-27.1,21c-8,8.9-13.2,19.1-15.6,30.5c-4.2,10.5-5.5,21.5-4,33
		c3.1,22.2,12.6,44.8,31.1,58.7c6.6,4.1,13.2,8.2,19.8,12.3c14,6.2,28.5,8.6,43.7,7.2c11.5-0.7,22.1-4,31.6-10.1
		c10.8-4.5,19.8-11.5,27.1-21c8-8.9,13.2-19.1,15.6-30.5C951,1184.7,952.4,1173.7,950.9,1162.3z"/>
	<path class="st13" d="M398.1,1859.9c-2.1-9.6-4.2-19.2-6.3-28.8c-6.9-18.6-17.9-34.3-33.1-47c-7.9-5-15.9-10-23.8-15
		c-17.6-8.1-36-11.4-55.3-10c-15.3,0.7-29.3,5.1-41.9,13.2c-13.5,5.6-24.8,14.4-34,26.3c-9.7,10.9-16.1,23.3-19.3,37.2
		c-5.5,13.3-7.4,27.3-5.7,41.9c2.1,9.6,4.2,19.2,6.3,28.8c6.9,18.6,17.9,34.3,33.1,47c7.9,5,15.9,10,23.8,15
		c17.6,8.1,36,11.4,55.3,10c15.3-0.7,29.3-5.1,41.9-13.2c13.5-5.6,24.8-14.4,34-26.3c9.7-10.9,16.1-23.3,19.3-37.2
		C397.9,1888.5,399.8,1874.5,398.1,1859.9z"/>
	<path class="st13" d="M2847.4,1801c-3.4-20.2-12.8-40.5-30.1-52.5c-5.8-3.3-11.7-6.7-17.5-10c-12.6-5.1-25.7-6.9-39.2-5.3
		c-10.6,0.9-20.1,4.3-28.6,10.2c-9.6,4.4-17.6,11.1-23.9,19.9c-6.6,8.1-10.8,17.1-12.6,27.1c-3.4,9.5-4.3,19.4-2.7,29.5
		c3.4,20.2,12.8,40.5,30.1,52.5c5.8,3.3,11.7,6.7,17.5,10c12.6,5.1,25.7,6.9,39.2,5.3c10.6-0.9,20.1-4.3,28.6-10.2
		c9.6-4.4,17.6-11.1,23.9-19.9c6.6-8.1,10.8-17.1,12.6-27.1C2848.1,1821.1,2849,1811.2,2847.4,1801z"/>
	<path class="st13" d="M669.4,740.4c-0.9-9.2-8.1-15.5-17.3-15.5c-8.6,0-16.3,8.8-15.5,17.3c0.9,9.2,8.1,15.5,17.3,15.5
		C662.5,757.7,670.2,748.9,669.4,740.4z"/>
	<path class="st13" d="M450.8,133.8c-5.7-5.8-11.4-11.5-17.1-17.3c-13.6-10.5-29-16.8-46-19.1c-12.4-2-24.3-0.9-35.8,3.3
		c-11.9,2.2-22.7,7.2-32.3,15c-10.4,7.3-18.3,16.6-23.6,27.9c-7.3,10.4-11.6,22.2-12.7,35.1c-1.9,23.7,2.7,49.3,18.3,68.2
		c5.7,5.8,11.4,11.5,17.1,17.3c13.6,10.5,29,16.8,46,19.1c12.4,2,24.3,0.9,35.8-3.3c11.9-2.2,22.7-7.2,32.3-15
		c10.4-7.3,18.3-16.6,23.6-27.9c7.3-10.4,11.6-22.2,12.7-35.1C471.1,178.3,466.5,152.7,450.8,133.8z"/>
	<path class="st13" d="M1927.9,938.8c-10.5,0-20.6,8.7-20.3,19.6c0.3,10.7,8.5,20.3,19.6,20.3c10.5,0,20.6-8.7,20.3-19.6
		C1947.3,948.5,1939.1,938.8,1927.9,938.8z"/>
</g>
<polygon class="st14" points="667.3,233.1 416.1,412.4 390.9,261.1 667.3,109.7 "/>
<polygon class="st9" points="416.1,412.4 1293.5,634.9 1259.4,412.4 390.9,261.1 "/>
</svg>
