<?xml version="1.0" encoding="utf-8"?>
<!-- Generator: Adobe Illustrator 23.0.0, SVG Export Plug-In . SVG Version: 6.00 Build 0)  -->
<svg version="1.1" id="Layer_1" xmlns="http://www.w3.org/2000/svg" xmlns:xlink="http://www.w3.org/1999/xlink" x="0px" y="0px"
	 viewBox="0 0 400 400" style="enable-background:new 0 0 400 400;" xml:space="preserve">
<style type="text/css">
	.st0{fill:#4D4D4D;}
</style>
<path class="st0" d="M394.5,33.8c1.5-1.5,1.5-3.8,0-5.3l-23-23c-1.5-1.5-3.8-1.5-5.3,0L354,17.7l-2.5,2.5l28.3,28.3l2.5-2.5
	L394.5,33.8z"/>
<path class="st0" d="M344.5,133.3v202.8c0,4.9-4,8.9-8.9,8.9H63.4c-4.9,0-8.9-4-8.9-8.9V63.9c0-4.9,4-8.9,8.9-8.9h203.8l35-35h-246
	C36,20,19.5,36.5,19.5,56.7v286.6c0,20.3,16.5,36.7,36.7,36.7h286.6c20.3,0,36.7-16.5,36.7-36.7v-245L344.5,133.3z"/>
<polygon class="st0" points="347.9,23.8 140.7,231 120.8,279.2 169,259.3 376.2,52.1 "/>
</svg>
