<?xml version="1.0" encoding="utf-8"?>
<!-- Generator: Adobe Illustrator 23.0.0, SVG Export Plug-In . SVG Version: 6.00 Build 0)  -->
<svg version="1.1" id="Capa_1" xmlns="http://www.w3.org/2000/svg" xmlns:xlink="http://www.w3.org/1999/xlink" x="0px" y="0px"
	 viewBox="0 0 12 12" style="enable-background:new 0 0 12 12;" xml:space="preserve">
<style type="text/css">
	.st0{display:none;}
	.st1{display:inline;fill:#4D4D4D;}
	.st2{fill:#4D4D4D;}
</style>
<g class="st0">
	<path class="st1" d="M12,1.9l-5.5,8.4c0,0.1-0.1,0.1-0.2,0.1l0,0c-0.1,0-0.1,0-0.2-0.1L0,1.9c0-0.1,0-0.1,0-0.2
		c0-0.1,0.1-0.1,0.2-0.1h11.6c0.1,0,0.1,0,0.2,0.1C12,1.8,12,1.8,12,1.9z"/>
</g>
<g>
	<path class="st2" d="M10.1,2.4L6.2,7.8c-0.1,0.2-0.4,0.2-0.5,0L1.9,2.4c-0.2-0.3-0.6-0.5-1-0.5H0l5.6,7.9c0.2,0.2,0.5,0.2,0.7,0
		L12,1.9h-0.9C10.7,1.9,10.3,2.1,10.1,2.4z"/>
</g>
</svg>
